<?xml version="1.0" encoding="UTF-8" standalone="no"?>
<!-- Created with Inkscape (http://www.inkscape.org/) -->

<svg
   width="1920"
   height="1080"
   viewBox="0 0 1920 1080"
   version="1.1"
   id="svg1"
   inkscape:version="1.4.2 (f4327f4, 2025-05-13)"
   sodipodi:docname="jb-tile-background.svg"
   inkscape:export-filename="..\JB-Tile-background.png"
   inkscape:export-xdpi="96"
   inkscape:export-ydpi="96"
   xmlns:inkscape="http://www.inkscape.org/namespaces/inkscape"
   xmlns:sodipodi="http://sodipodi.sourceforge.net/DTD/sodipodi-0.dtd"
   xmlns="http://www.w3.org/2000/svg"
   xmlns:svg="http://www.w3.org/2000/svg">
  <sodipodi:namedview
     id="namedview1"
     pagecolor="#505050"
     bordercolor="#eeeeee"
     borderopacity="1"
     inkscape:showpageshadow="0"
     inkscape:pageopacity="0"
     inkscape:pagecheckerboard="0"
     inkscape:deskcolor="#505050"
     inkscape:document-units="px"
     inkscape:zoom="0.50646226"
     inkscape:cx="574.57391"
     inkscape:cy="608.14009"
     inkscape:window-width="3198"
     inkscape:window-height="1761"
     inkscape:window-x="2552"
     inkscape:window-y="360"
     inkscape:window-maximized="0"
     inkscape:current-layer="layer2" />
  <defs
     id="defs1" />
  <g
     inkscape:label="Calque 1"
     inkscape:groupmode="layer"
     id="layer1">
    <path
       id="Jotabe-letter-e-03-5-16-1-49"
       style="display:inline;fill:none;stroke-width:3.375;stroke:#191419;stroke-opacity:0.1"
       inkscape:label="JB-Tile"
       d="m 258,-178.31475 c -90.11,33.75 -179.89,67.5 -270,101.25 v 54 l 162,-60.75 c 8.78,50.62 54,87.75 108,67.5 l 162,-60.75 v -54 c 0,0 -29.02,10.8 -54,20.25 -54,20.25 -99.22,-16.88 -108,-67.5 z m -108,94.5 c -90.11,33.75 -179.89,67.5 -270,101.25 v 54 l 162,-60.75 c 8.78,50.62 54,87.74995 108,67.5 l 162,-60.75 v -54 c 0,0 -29.02,10.8 -54,20.25 -54,20.25 -99.22,-16.88 -108,-67.5 z m -108,94.5 c -90.11,33.75 -179.89,67.5 -270,101.25005 v 54 l 162,-60.7501 c 8.78,50.6201 54,87.7501 108,67.5001 l 162,-60.75 V 57.93525 c 0,0 -29.02,10.8 -54,20.25 -54,20.24995 -99.22,-16.88 -108,-67.5 z M -66,105.1852 c -90.11,33.7501 -179.89,67.5001 -270,101.2501 v 54 l 162,-60.75 c 8.78,50.62 54,87.75 108,67.5 l 162,-60.75 v -54 c 0,0 -29.02,10.8 -54,20.25 -54,20.25 -99.22,-16.88 -108,-67.5001 z M 474,-43.3147 c -90.11,33.75 -179.89,67.5 -270,101.25 v 54 l 162,-60.75 c 8.78,50.62 54,87.75 108,67.5 l 162,-60.75 v -54 c 0,0 -29.02,10.8 -54,20.25 -54,20.25 -99.22,-16.88 -108,-67.5 z m -108,94.5 c -90.11,33.75 -179.89,67.5 -270,101.25 v 54 l 162,-60.75 c 8.78,50.62 54,87.75 108,67.5 l 162,-60.75 v -54 c 0,0 -29.02,10.8 -54,20.25 -54,20.25 -99.22,-16.88 -108,-67.5 z m -108,94.5 c -90.11,33.75 -179.89,67.5 -270,101.25 v 54 l 162,-60.75 c 8.78,50.62 54,87.75 108,67.5 l 162,-60.75 v -54 c 0,0 -29.02,10.8 -54,20.25 -54,20.25 -99.22,-16.88 -108,-67.5 z m -108,94.5 c -90.11,33.75 -179.89,67.5 -270,101.25 v 54 l 162,-60.75 c 8.78,50.62 54,87.75 108,67.5 l 162,-60.75 v -54 c 0,0 -29.02,10.8 -54,20.25 -54,20.25 -99.22,-16.88 -108,-67.5 z m -108,94.5 c -90.11,33.75 -179.89,67.5 -270,101.2501 v 54 l 162,-60.7501 c 8.78,50.6201 54,87.7501 108,67.5001 l 162,-60.75 v -54.0001 c 0,0 -29.02,10.8 -54,20.25 -54,20.25 -99.22,-16.88 -108,-67.5 z m -108,94.5 c -90.11,33.7501 -179.89,67.5001 -270,101.2501 v 54 l 162,-60.75 c 8.78,50.62 54,87.75 108,67.5 l 162,-60.75 v -54 c 0,0 -29.02,10.8 -54,20.25 -54,20.25 -99.22,-16.88 -108,-67.5001 z m 648,-567 c -90.11,33.75 -179.89,67.5 -270,101.25 v 54 l 162,-60.75 c 8.78,50.62 54,87.75 108,67.5 l 162,-60.75 v -54 c 0,0 -29.02,10.8 -54,20.25 -54,20.25 -99.22,-16.88 -108,-67.5 z m -108,418.5 c -90.11,33.75 -179.89,67.5 -270,101.25 v 54 l 162,-60.75 c 8.78,50.62 54,87.75 108,67.5 l 162,-60.75 v -54 c 0,0 -29.02,10.8 -54,20.25 -54,20.25 -99.22,-16.88 -108,-67.5 z m -108,94.5 c -90.11,33.75 -179.89,67.5 -270,101.25 v 54 l 162,-60.75 c 8.78,50.62 54,87.75 108,67.5 l 162,-60.75 v -54 c 0,0 -29.02,10.8 -54,20.25 -54,20.25 -99.22,-16.88 -108,-67.5 z m -108,94.5 c -90.11,33.75 -179.89,67.5 -270,101.25 v 54 l 162,-60.75 c 8.78,50.62 54,87.75 108,67.5 l 162,-60.75 v -54 c 0,0 -29.02,10.8 -54,20.25 -54,20.25 -99.22,-16.88 -108,-67.5 z m -108,94.5 c -90.11,33.75 -179.89,67.5 -270,101.25 v 54 l 162,-60.75 c 8.78,50.62 54,87.75 108,67.5 l 162,-60.75 v -54 c 0,0 -29.02,10.8 -54,20.25 -54,20.25 -99.22,-16.88 -108,-67.5 z m -108,94.5 c -90.11,33.75 -179.89,67.5 -270,101.2501 v 54 l 162,-60.7501 c 8.78,50.6201 54,87.7501 108,67.5001 l 162,-60.75 v -54.0001 c 0,0 -29.02,10.8 -54,20.25 -54,20.25 -99.22,-16.88 -108,-67.5 z m -108,94.5 c -90.11,33.7501 -179.89,67.5001 -270,101.2501 v 54 l 162,-60.75 c 8.78,50.62 54,87.75 108,67.5 l 162,-60.75 v -54 c 0,0 -29.02,10.8 -54,20.25 -54,20.25 -99.22,-16.88 -108,-67.5001 z m 1080,-945 c -90.11,33.75 -179.89,67.5 -270,101.25 v 54 l 162,-60.75 c 8.78,50.62 54,87.75 108,67.5 l 162,-60.75 v -54 c 0,0 -29.02,10.8 -54,20.25 -54,20.25 -99.22,-16.88 -108,-67.5 z m -108,94.5 c -90.11,33.75 -179.89,67.5 -270,101.25 v 54 l 162,-60.75 c 8.78,50.62 54,87.75 108,67.5 l 162,-60.75 v -54 c 0,0 -29.02,10.8 -54,20.25 -54,20.25 -99.22,-16.88 -108,-67.5 z m -108,94.5 c -90.11,33.75 -179.89,67.5 -270,101.25 v 54 l 162,-60.75 c 8.78,50.62 54,87.75 108,67.5 l 162,-60.75 v -54 c 0,0 -29.02,10.8 -54,20.25 -54,20.25 -99.22,-16.88 -108,-67.5 z m -108,94.5 c -90.11,33.75 -179.89,67.5 -270,101.25 v 54 l 162,-60.75 c 8.78,50.62 54,87.75 108,67.5 l 162,-60.75 v -54 c 0,0 -29.02,10.8 -54,20.25 -54,20.25 -99.22,-16.88 -108,-67.5 z m -108,94.5 c -90.11,33.75 -179.89,67.5 -270,101.25 v 54 l 162,-60.75 c 8.78,50.62 54,87.75 108,67.5 l 162,-60.75 v -54 c 0,0 -29.02,10.8 -54,20.25 -54,20.25 -99.22,-16.88 -108,-67.5 z m 0,324 c -90.11,33.75 -179.89,67.5 -270,101.25 v 54 l 162,-60.75 c 8.78,50.62 54,87.75 108,67.5 l 162,-60.75 v -54 c 0,0 -29.02,10.8 -54,20.25 -54,20.25 -99.22,-16.88 -108,-67.5 z m -108,94.5 c -90.11,33.75 -179.89,67.5 -270,101.25 v 54 l 162,-60.75 c 8.78,50.62 54,87.75 108,67.5 l 162,-60.75 v -54 c 0,0 -29.02,10.8 -54,20.25 -54,20.25 -99.22,-16.88 -108,-67.5 z m -108,94.5 c -90.11,33.75 -179.89,67.5 -270,101.25 v 54 l 162,-60.75 c 8.78,50.62 54,87.75 108,67.5 l 162,-60.75 v -54 c 0,0 -29.02,10.8 -54,20.25 -54,20.25 -99.22,-16.88 -108,-67.5 z m -108,94.5 c -90.11,33.75 -179.89,67.5 -270,101.25 v 54 l 162,-60.75 c 8.78,50.62 54,87.75 108,67.5 l 162,-60.75 v -54 c 0,0 -29.02,10.8 -54,20.25 -54,20.25 -99.22,-16.88 -108,-67.5 z m -108,94.5 c -90.11,33.75 -179.89,67.5 -270,101.2501 v 54 L 42,982.6853 c 8.78,50.6201 54,87.7501 108,67.5001 l 162,-60.75 v -54.0001 c 0,0 -29.02,10.8 -54,20.25 -54,20.25 -99.22,-16.88 -108,-67.5 z m -108,94.5 c -90.11,33.7501 -179.89,67.5001 -270,101.2501 v 54 l 162,-60.75 c 8.78,50.62 54,87.75 108,67.5 l 162,-60.75 v -54 c 0,0 -29.02,10.8 -54,20.25 -54,20.25 -99.22,-16.88 -108,-67.5001 z m 1296,-1134 c -90.11,33.75 -179.89,67.5 -270,101.25 v 54 l 162,-60.75 c 8.78,50.62 54,87.75 108,67.5 l 162,-60.75 v -54 c 0,0 -29.02,10.8 -54,20.25 -54,20.25 -99.22,-16.88 -108,-67.5 z m -108,94.5 c -90.11,33.75 -179.89,67.5 -270,101.25 v 54 l 162,-60.75 c 8.78,50.62 54,87.75 108,67.5 l 162,-60.75 v -54 c 0,0 -29.02,10.8 -54,20.25 -54,20.25 -99.22,-16.88 -108,-67.5 z m -108,94.5 c -90.11,33.75 -179.89,67.5 -270,101.25 v 54 l 162,-60.75 c 8.78,50.62 54,87.75 108,67.5 l 162,-60.75 v -54 c 0,0 -29.02,10.8 -54,20.25 -54,20.25 -99.22,-16.88 -108,-67.5 z m -108,94.5 c -90.11,33.75 -179.89,67.5 -270,101.25 v 54 l 162,-60.75 c 8.78,50.62 54,87.75 108,67.5 l 162,-60.75 v -54 c 0,0 -29.02,10.8 -54,20.25 -54,20.25 -99.22,-16.88 -108,-67.5 z m -108,94.5 c -90.11,33.75 -179.89,67.5 -270,101.25 v 54 l 162,-60.75 c 8.78,50.62 54,87.75 108,67.5 l 162,-60.75 v -54 c 0,0 -29.02,10.8 -54,20.25 -54,20.25 -99.22,-16.88 -108,-67.5 z m -108,94.5 c -90.11,33.75 -179.89,67.5 -270,101.25 v 54 l 162,-60.75 c 8.78,50.62 54,87.75 108,67.5 l 162,-60.75 v -54 c 0,0 -29.02,10.8 -54,20.25 -54,20.25 -99.22,-16.88 -108,-67.5 z m -108,94.5 c -90.11,33.75 -179.89,67.5 -270,101.25 v 54 l 162,-60.75 c 8.78,50.62 54,87.75 108,67.5 l 162,-60.75 v -54 c 0,0 -29.02,10.8 -54,20.25 -54,20.25 -99.22,-16.88 -108,-67.5 z m 1404,391.5001 c -90.11,33.75 -179.89,67.5 -270,101.25 v 54 l 162,-60.75 c 8.78,50.62 54,87.75 108,67.5 l 162,-60.75 v -54 c 0,0 -29.02,10.8 -54,20.25 -54,20.25 -99.22,-16.88 -108,-67.5 z m -108,94.5 c -90.11,33.75 -179.89,67.5 -270,101.2501 v 54 l 162,-60.7501 c 8.78,50.6201 54,87.7501 108,67.5001 l 162,-60.75 v -54.0001 c 0,0 -29.02,10.8 -54,20.25 -54,20.25 -99.22,-16.88 -108,-67.5 z m -108,94.5 c -90.11,33.7501 -179.89,67.5001 -270,101.2501 v 54 l 162,-60.75 c 8.78,50.62 54,87.75 108,67.5 l 162,-60.75 v -54 c 0,0 -29.02,10.8 -54,20.25 -54,20.25 -99.22,-16.88 -108,-67.5001 z m 108,-418.4999 c -90.11,33.75 -179.89,67.5 -270,101.25 v 54 l 162,-60.75 c 8.78,50.62 54,87.75 108,67.5 l 162,-60.75 v -54 c 0,0 -29.02,10.8 -54,20.25 -54,20.25 -99.22,-16.88 -108,-67.5 z m -108,94.5 c -90.11,33.75 -179.89,67.5 -270,101.25 v 54 l 162,-60.75 c 8.78,50.62 54,87.75 108,67.5 l 162,-60.75 v -54 c 0,0 -29.02,10.8 -54,20.25 -54,20.25 -99.22,-16.88 -108,-67.5 z m -108,94.5 c -90.11,33.75 -179.89,67.5 -270,101.25 v 54 l 162,-60.75 c 8.78,50.62 54,87.75 108,67.5 l 162,-60.75 v -54 c 0,0 -29.02,10.8 -54,20.25 -54,20.25 -99.22,-16.88 -108,-67.5 z m -108,94.5 c -90.11,33.75 -179.89,67.5 -270,101.25 v 54 l 162,-60.75 c 8.78,50.62 54,87.75 108,67.5 l 162,-60.75 v -54 c 0,0 -29.02,10.8 -54,20.25 -54,20.25 -99.22,-16.88 -108,-67.5 z m -108,94.5 c -90.11,33.75 -179.89,67.5 -270,101.2501 v 54 l 162,-60.7501 c 8.78,50.6201 54,87.7501 108,67.5001 l 162,-60.75 v -54.0001 c 0,0 -29.02,10.8 -54,20.25 -54,20.25 -99.22,-16.88 -108,-67.5 z m -108,94.5 c -90.11,33.7501 -179.89,67.5001 -270,101.2501 v 54 l 162,-60.75 c 8.78,50.62 54,87.75 108,67.5 l 162,-60.75 v -54 c 0,0 -29.02,10.8 -54,20.25 -54,20.25 -99.22,-16.88 -108,-67.5001 z m 648,-567 c -90.11,33.75 -179.89,67.5 -270,101.25 v 54 l 162,-60.75 c 8.78,50.62 54,87.75 108,67.5 l 162,-60.75 v -54 c 0,0 -29.02,10.8 -54,20.25 -54,20.25 -99.22,-16.88 -108,-67.5 z m -432,53.9999 c -90.11,33.75 -179.89,67.5 -270,101.25 v 54 l 162,-60.75 c 8.78,50.62 54,87.75 108,67.5 l 162,-60.75 v -54 c 0,0 -29.02,10.8 -54,20.25 -54,20.25 -99.22,-16.88 -108,-67.5 z m -108,94.5 c -90.11,33.75 -179.89,67.5 -270,101.25 v 54 l 162,-60.75 c 8.78,50.62 54,87.75 108,67.5 l 162,-60.75 v -54 c 0,0 -29.02,10.8 -54,20.25 -54,20.25 -99.22,-16.88 -108,-67.5 z m -108,94.5 c -90.11,33.75 -179.89,67.5 -270,101.25 v 54 l 162,-60.75 c 8.78,50.62 54,87.75 108,67.5 l 162,-60.75 v -54 c 0,0 -29.02,10.8 -54,20.25 -54,20.25 -99.22,-16.88 -108,-67.5 z m -108,94.5 c -90.11,33.75 -179.89,67.5 -270,101.25 v 54 l 162,-60.75 c 8.78,50.62 54,87.75 108,67.5 l 162,-60.75 v -54 c 0,0 -29.02,10.8 -54,20.25 -54,20.25 -99.22,-16.88 -108,-67.5 z m -108,94.5 c -90.11,33.75 -179.89,67.5 -270,101.2501 v 54 l 162,-60.7501 c 8.78,50.6201 54,87.7501 108,67.5001 l 162,-60.75 v -54.0001 c 0,0 -29.02,10.8 -54,20.25 -54,20.25 -99.22,-16.88 -108,-67.5 z m -108,94.5 c -90.11,33.7501 -179.89,67.5001 -270,101.2501 v 54 l 162,-60.75 c 8.78,50.62 54,87.75 108,67.5 l 162,-60.75 v -54 c 0,0 -29.02,10.8 -54,20.25 -54,20.25 -99.22,-16.88 -108,-67.5001 z m 972,-850.5 c -90.11,33.75 -179.89,67.5 -270,101.25 v 54 l 162,-60.75 c 8.78,50.62 54,87.75 108,67.5 l 162,-60.75 v -54 c 0,0 -29.02,10.8 -54,20.25 -54,20.25 -99.22,-16.88 -108,-67.5 z m -108,94.5 c -90.11,33.75 -179.89,67.5 -270,101.25 v 54 l 162,-60.75 c 8.78,50.62 54,87.75 108,67.5 l 162,-60.75 v -54 c 0,0 -29.02,10.8 -54,20.25 -54,20.25 -99.22,-16.88 -108,-67.5 z m -108,94.5 c -90.11,33.75 -179.89,67.5 -270,101.25 v 54 l 162,-60.75 c 8.78,50.62 54,87.75 108,67.5 l 162,-60.75 v -54 c 0,0 -29.02,10.8 -54,20.25 -54,20.25 -99.22,-16.88 -108,-67.5 z m -108,94.5 c -90.11,33.75 -179.89,67.5 -270,101.25 v 54 l 162,-60.75 c 8.78,50.62 54,87.75 108,67.5 l 162,-60.75 v -54 c 0,0 -29.02,10.8 -54,20.25 -54,20.25 -99.22,-16.88 -108,-67.5 z m -540,148.5 c -90.11,33.75 -179.89,67.5 -270,101.25 v 54 l 162,-60.75 c 8.78,50.62 54,87.75 108,67.5 l 162,-60.75 v -54 c 0,0 -29.02,10.8 -54,20.25 -54,20.25 -99.22,-16.88 -108,-67.5 z m -108,94.5 c -90.11,33.75 -179.89,67.5 -270,101.25 v 54 l 162,-60.75 c 8.78,50.62 54,87.75 108,67.5 l 162,-60.75 v -54 c 0,0 -29.02,10.8 -54,20.25 -54,20.25 -99.22,-16.88 -108,-67.5 z m -108,94.5 c -90.11,33.75 -179.89,67.5 -270,101.25 v 54 l 162,-60.75 c 8.78,50.62 54,87.75 108,67.5 l 162,-60.75 v -54 c 0,0 -29.02,10.8 -54,20.25 -54,20.25 -99.22,-16.88 -108,-67.5 z m -108,94.5 c -90.11,33.75 -179.89,67.5 -270,101.25 v 54 l 162,-60.75 c 8.78,50.62 54,87.75 108,67.5 l 162,-60.75 v -54 c 0,0 -29.02,10.8 -54,20.25 -54,20.25 -99.22,-16.88 -108,-67.5 z m -108,94.5 c -90.11,33.75 -179.89,67.5 -270,101.2501 v 54 l 162,-60.7501 c 8.78,50.6201 54,87.7501 108,67.5001 l 162,-60.75 v -54.0001 c 0,0 -29.02,10.8 -54,20.25 -54,20.25 -99.22,-16.88 -108,-67.5 z m -108,94.5 c -90.11,33.7501 -179.89,67.5001 -270,101.2501 v 54 l 162,-60.75 c 8.78,50.62 54,87.75 108,67.5 l 162,-60.75 v -54 c 0,0 -29.02,10.8 -54,20.25 -54,20.25 -99.22,-16.88 -108,-67.5001 z m 1296,-1134 c -90.11,33.75 -179.89,67.5 -270,101.25 v 54 l 162,-60.75 c 8.78,50.62 54,87.75 108,67.5 l 162,-60.75 v -54 c 0,0 -29.02,10.8 -54,20.25 -54,20.25 -99.22,-16.88 -108,-67.5 z m -108,94.5 c -90.11,33.75 -179.89,67.5 -270,101.25 v 54 l 162,-60.75 c 8.78,50.62 54,87.75 108,67.5 l 162,-60.75 v -54 c 0,0 -29.02,10.8 -54,20.25 -54,20.25 -99.22,-16.88 -108,-67.5 z m -108,94.5 c -90.11,33.75 -179.89,67.5 -270,101.25 v 54 l 162,-60.75 c 8.78,50.62 54,87.75 108,67.5 l 162,-60.75 v -54 c 0,0 -29.02,10.8 -54,20.25 -54,20.25 -99.22,-16.88 -108,-67.5 z m -108,94.5 c -90.11,33.75 -179.89,67.5 -270,101.25 v 54 l 162,-60.75 c 8.78,50.62 54,87.75 108,67.5 l 162,-60.75 v -54 c 0,0 -29.02,10.8 -54,20.25 -54,20.25 -99.22,-16.88 -108,-67.5 z m -108,94.5 c -90.11,33.75 -179.89,67.5 -270,101.25 v 54 l 162,-60.75 c 8.78,50.62 54,87.75 108,67.5 l 162,-60.75 v -54 c 0,0 -29.02,10.8 -54,20.25 -54,20.25 -99.22,-16.88 -108,-67.5 z m -108,94.5 c -90.11,33.75 -179.89,67.5 -270,101.25 v 54 l 162,-60.75 c 8.78,50.62 54,87.75 108,67.5 l 162,-60.75 v -54 c 0,0 -29.02,10.8 -54,20.25 -54,20.25 -99.22,-16.88 -108,-67.5 z m -108,94.5 c -90.11,33.75 -179.89,67.5 -270,101.25 v 54 l 162,-60.75 c 8.78,50.62 54,87.75 108,67.5 l 162,-60.75 v -54 c 0,0 -29.02,10.8 -54,20.25 -54,20.25 -99.22,-16.88 -108,-67.5 z m -432,53.99995 c -90.11,33.75 -179.89,67.5 -270,101.25 v 54 l 162,-60.75 c 8.78,50.62 54,87.75 108,67.5 l 162,-60.75 v -54 c 0,0 -29.02,10.8 -54,20.25 -54,20.25 -99.22,-16.88 -108,-67.5 z m -108,94.5 c -90.11,33.75 -179.89,67.5 -270,101.25 v 54 l 162,-60.75 c 8.78,50.62 54,87.75 108,67.5 l 162,-60.75 v -54 c 0,0 -29.02,10.8 -54,20.25 -54,20.25 -99.22,-16.88 -108,-67.5 z m -108,94.5 c -90.11,33.75 -179.89,67.5 -270,101.25 v 54 l 162,-60.75 c 8.78,50.62 54,87.75 108,67.5 l 162,-60.75 v -54 c 0,0 -29.02,10.8 -54,20.25 -54,20.25 -99.22,-16.88 -108,-67.5 z m -108,94.5 c -90.11,33.75 -179.89,67.5 -270,101.25 v 54 l 162,-60.75 c 8.78,50.62 54,87.74995 108,67.5 l 162,-60.75 v -54 c 0,0 -29.02,10.8 -54,20.25 -54,20.25 -99.22,-16.88 -108,-67.5 z m -108,94.5 c -90.11,33.75 -179.89,67.5 -270,101.25005 v 54 l 162,-60.7501 c 8.78,50.6201 54,87.7501 108,67.5001 l 162,-60.75 v -54.00005 c 0,0 -29.02,10.8 -54,20.25 -54,20.24995 -99.22,-16.88 -108,-67.5 z m -108,94.49995 c -90.11,33.7501 -179.89,67.5001 -270,101.2501 v 54 l 162,-60.75 c 8.78,50.62 54,87.75 108,67.5 l 162,-60.75 v -54 c 0,0 -29.02,10.8 -54,20.25 -54,20.25 -99.22,-16.88 -108,-67.5001 z M 1662,-110.81465 c -90.11,33.75 -179.89,67.5 -270,101.25 v 54 l 162,-60.75 c 8.78,50.62 54,87.75 108,67.5 l 162,-60.75 v -54 c 0,0 -29.02,10.8 -54,20.25 -54,20.25 -99.22,-16.88 -108,-67.5 z m -108,94.5 c -90.11,33.75 -179.89,67.5 -270,101.25 v 54 l 162,-60.75 c 8.78,50.62 54,87.75 108,67.5 l 162,-60.75 v -54 c 0,0 -29.02,10.8 -54,20.25 -54,20.25 -99.22,-16.88 -108,-67.5 z m -108,94.5 c -90.11,33.75 -179.89,67.5 -270,101.25 v 54 l 162,-60.75 c 8.78,50.62 54,87.75 108,67.5 l 162,-60.75 v -54 c 0,0 -29.02,10.8 -54,20.25 -54,20.25 -99.22,-16.88 -108,-67.5 z m -108,94.5 c -90.11,33.75 -179.89,67.5 -270,101.25 v 54 l 162,-60.75 c 8.78,50.62 54,87.75 108,67.5 l 162,-60.75 v -54 c 0,0 -29.02,10.8 -54,20.25 -54,20.25 -99.22,-16.88 -108,-67.5 z m -108,94.5 c -90.11,33.75 -179.89,67.5 -270,101.25 v 54 l 162,-60.75 c 8.78,50.62 54,87.75 108,67.5 l 162,-60.75 v -54 c 0,0 -29.02,10.8 -54,20.25 -54,20.25 -99.22,-16.88 -108,-67.5 z m -108,94.5 c -90.11,33.75 -179.89,67.5 -270,101.25 v 54 l 162,-60.75 c 8.78,50.62 54,87.75 108,67.5 l 162,-60.75 v -54 c 0,0 -29.02,10.8 -54,20.25 -54,20.25 -99.22,-16.88 -108,-67.5 z" />
  </g>
  <g
     inkscape:groupmode="layer"
     id="layer2"
     inkscape:label="Calque 2">
    <path
       id="Jotabe-letter-e-03"
       d="m 1014,456.18535 c -90.11,33.75 -179.89,67.5 -270,101.25 v 54 l 162,-60.75 c 8.78,50.62 54,87.75 108,67.5 l 162,-60.75 v -54 c 0,0 -29.02,10.8 -54,20.25 -54,20.25 -99.22,-16.88 -108,-67.5 z"
       sodipodi:nodetypes="ccccccccc"
       inkscape:label="JB-Tile"
       style="display:inline;fill:#000000;stroke:none;stroke-width:3.375;stroke-opacity:0.1;fill-opacity:1" />
  </g>
</svg>
