<?xml version="1.0" encoding="UTF-8" standalone="no"?>
<!-- Created with Inkscape (http://www.inkscape.org/) -->

<svg
   width="320"
   height="45"
   viewBox="0 0 320.00001 45"
   version="1.1"
   id="svg1"
   inkscape:version="1.4.2 (f4327f4, 2025-05-13)"
   sodipodi:docname="social-panels.svg"
   xml:space="preserve"
   inkscape:export-filename="..\socials\twitch\panels\panel-tipeee.png"
   inkscape:export-xdpi="96"
   inkscape:export-ydpi="96"
   xmlns:inkscape="http://www.inkscape.org/namespaces/inkscape"
   xmlns:sodipodi="http://sodipodi.sourceforge.net/DTD/sodipodi-0.dtd"
   xmlns:xlink="http://www.w3.org/1999/xlink"
   xmlns="http://www.w3.org/2000/svg"
   xmlns:svg="http://www.w3.org/2000/svg"><sodipodi:namedview
     id="namedview1"
     pagecolor="#505050"
     bordercolor="#eeeeee"
     borderopacity="1"
     inkscape:showpageshadow="0"
     inkscape:pageopacity="0"
     inkscape:pagecheckerboard="0"
     inkscape:deskcolor="#505050"
     inkscape:document-units="px"
     inkscape:zoom="2.8284271"
     inkscape:cx="99.878834"
     inkscape:cy="-126.92567"
     inkscape:window-width="2558"
     inkscape:window-height="2121"
     inkscape:window-x="2560"
     inkscape:window-y="0"
     inkscape:window-maximized="0"
     inkscape:current-layer="g7"
     showguides="true"><sodipodi:guide
       position="235,45.000001"
       orientation="0.35129592,0.93626448"
       id="guide2"
       inkscape:locked="false"
       inkscape:label=""
       inkscape:color="rgb(0,134,229)" /><sodipodi:guide
       position="235.00003,45.000001"
       orientation="0.93626448,-0.35129592"
       id="guide4"
       inkscape:label=""
       inkscape:locked="false"
       inkscape:color="rgb(0,134,229)" /><sodipodi:guide
       position="235.00004,45"
       orientation="1,0"
       id="guide5"
       inkscape:locked="false" /><sodipodi:guide
       position="280,45"
       orientation="1,0"
       id="guide6"
       inkscape:locked="false" /><sodipodi:guide
       position="280,0"
       orientation="0.93626448,-0.35129592"
       id="guide25"
       inkscape:label=""
       inkscape:locked="false"
       inkscape:color="rgb(0,134,229)" /><sodipodi:guide
       position="40.000005,0"
       orientation="1,0"
       id="guide1"
       inkscape:locked="false" /></sodipodi:namedview><defs
     id="defs1"><linearGradient
       id="linearGradient22"
       inkscape:collect="always"><stop
         style="stop-color:#25f4ee;stop-opacity:1;"
         offset="0"
         id="stop22" /><stop
         style="stop-color:#000000;stop-opacity:1;"
         offset="0.33146065"
         id="stop24" /><stop
         style="stop-color:#000000;stop-opacity:1;"
         offset="0.66292137"
         id="stop25" /><stop
         style="stop-color:#fe2c55;stop-opacity:1;"
         offset="1"
         id="stop23" /></linearGradient><linearGradient
       id="linearGradient10"
       inkscape:collect="always"><stop
         style="stop-color:#f9ce34;stop-opacity:1;"
         offset="0"
         id="stop10" /><stop
         style="stop-color:#ee2a7b;stop-opacity:1;"
         offset="0.5"
         id="stop12" /><stop
         style="stop-color:#6228d7;stop-opacity:1;"
         offset="1"
         id="stop11" /></linearGradient><rect
       x="66.114484"
       y="0"
       width="168.88555"
       height="45"
       id="rect6" /><linearGradient
       inkscape:collect="always"
       xlink:href="#linearGradient10"
       id="linearGradient11"
       x1="235.00003"
       y1="45"
       x2="280"
       y2="0"
       gradientUnits="userSpaceOnUse" /><linearGradient
       inkscape:collect="always"
       xlink:href="#linearGradient22"
       id="linearGradient23"
       x1="235.00003"
       y1="0"
       x2="289.24738"
       y2="20.354162"
       gradientUnits="userSpaceOnUse" /></defs><g
     inkscape:groupmode="layer"
     id="g23"
     inkscape:label="YouTube"
     style="display:none"><path
       style="display:inline;fill:#edd2a6;fill-opacity:1;stroke:none;stroke-width:1px;stroke-linecap:butt;stroke-linejoin:miter;stroke-opacity:1"
       d="M 5.6,0 0,15 h 40.000004 c -2.8,15 10.1,30 31.4,30 H 235.00004 V 0 Z"
       id="path11"
       inkscape:label="tile-left"
       sodipodi:nodetypes="cccsccc" /><path
       id="path22"
       style="display:inline;fill:#ee0f0f;fill-opacity:1;stroke:none;stroke-width:1px;stroke-linecap:butt;stroke-linejoin:miter;stroke-opacity:1"
       inkscape:label="tile-right.discord"
       d="m 235,0 -16.88477,45 h 45 51.28516 L 320,30 h -8.59961 C 290.00047,30 277.20012,14.999947 280,0 Z" /><path
       d="m 268.55562,16.686 c -0.276,-1.039 -1.089,-1.858 -2.122,-2.136 -1.871,-0.504 -9.376,-0.504 -9.376,-0.504 0,0 -7.505,0 -9.377,0.504 -1.03201,0.278 -1.845,1.096 -2.12101,2.136 -0.502,1.884 -0.502,5.814 -0.502,5.814 0,0 0,3.93 0.502,5.814 0.27601,1.039 1.089,1.858 2.12201,2.136 1.871,0.504 9.376,0.504 9.376,0.504 0,0 7.505,0 9.37699,-0.504 1.032,-0.278 1.84501,-1.096 2.12201,-2.136 0.50099,-1.884 0.50099,-5.814 0.50099,-5.814 0,0 0,-3.93 -0.50199,-5.814 z m -13.952,9.383 v -7.138 l 6.272,3.569 z"
       fill="#ffffff"
       id="path23"
       inkscape:label="logo.youtube" /><text
       xml:space="preserve"
       style="font-style:normal;font-variant:normal;font-weight:bold;font-stretch:normal;font-size:30px;line-height:1.25;font-family:'Hanken Grotesk';-inkscape-font-specification:'Hanken Grotesk Bold';font-variant-ligatures:none;text-align:center;text-anchor:middle;fill:#191419;fill-opacity:1"
       x="135.52591"
       y="33.877541"
       id="text23"
       inkscape:label="text.youtube"><tspan
         sodipodi:role="line"
         id="tspan23"
         x="135.52591"
         y="33.877541"
         style="font-style:normal;font-variant:normal;font-weight:bold;font-stretch:normal;font-size:30px;font-family:'Hanken Grotesk';-inkscape-font-specification:'Hanken Grotesk Bold';text-align:center;text-anchor:middle;fill:#191419;fill-opacity:1">YouTube</tspan></text></g><g
     inkscape:groupmode="layer"
     id="g10"
     inkscape:label="Instagram"
     style="display:none"><path
       style="display:inline;fill:#edd2a6;fill-opacity:1;stroke:none;stroke-width:1px;stroke-linecap:butt;stroke-linejoin:miter;stroke-opacity:1"
       d="M 5.6,0 0,15 h 40.000004 c -2.8,15 10.1,30 31.4,30 H 235.00004 V 0 Z"
       id="path8"
       inkscape:label="tile-left"
       sodipodi:nodetypes="cccsccc" /><path
       id="path9"
       style="display:inline;fill:url(#linearGradient11);stroke:none;stroke-width:1px;stroke-linecap:butt;stroke-linejoin:miter;stroke-opacity:1"
       inkscape:label="tile-right.instagram"
       d="m 235,0 -16.88477,45 h 45 51.28516 L 320,30 h -8.59961 C 290.00047,30 277.20012,14.999947 280,0 Z" /><path
       id="path1"
       d="M 11.999031,0 C 8.7400306,0 8.331765,0.01426563 7.051765,0.07226562 5.196765,0.15726563 3.3556556,0.67267187 2.0146556,2.0136719 0.66865562,3.3596719 0.15629625,5.1987344 0.07129625,7.0527344 0.01329625,8.3327344 -9.69375e-4,8.741 -9.69375e-4,12 c 0,3.259 0.014265625,3.667266 0.072265625,4.947266 0.085,1.853 0.60435937,3.701062 1.94335935,5.039062 1.345,1.345 3.1851094,1.856406 5.0371094,1.941406 1.28,0.058 1.6882656,0.07227 4.947266,0.07227 3.259,0 3.669218,-0.01427 4.949218,-0.07227 1.854,-0.085 3.69711,-0.601406 5.03711,-1.941406 1.347,-1.347 1.858359,-3.185062 1.943359,-5.039062 0.058,-1.28 0.07031,-1.688266 0.07031,-4.947266 0,-3.259 -0.01231,-3.6672656 -0.07031,-4.9472656 -0.085,-1.855 -0.603359,-3.6990625 -1.943359,-5.0390625 -1.343,-1.34300002 -3.18811,-1.85740627 -5.03711,-1.94140628 C 15.668249,0.01426563 15.258031,0 11.999031,0 Z m 0,2.1621094 c 3.204,0 3.584609,0.012313 4.849609,0.070312 1.308,0.06 2.654422,0.3575469 3.607422,1.3105469 0.962,0.9619999 1.2525,2.2954218 1.3125,3.6074218 0.058,1.265 0.07031,1.6456094 0.07031,4.8496099 0,3.204 -0.01231,3.584609 -0.07031,4.849609 -0.059,1.300999 -0.3655,2.660422 -1.3125,3.607422 -0.962,0.962 -2.294422,1.250547 -3.607422,1.310547 -1.265,0.058 -1.645609,0.07031 -4.849609,0.07031 -3.2040004,0 -3.5826566,-0.01231 -4.8476566,-0.07031 -1.291,-0.059 -2.6684219,-0.370547 -3.6074219,-1.310547 -0.957,-0.957001 -1.2525,-2.303423 -1.3125,-3.607422 C 2.1734525,15.584609 2.16114,15.204 2.16114,12 c 0,-3.204 0.012312,-3.5846094 0.070312,-4.8496094 0.059,-1.296 0.3685,-2.6634218 1.3125,-3.6074218 0.96,-0.96 2.2984219,-1.2505469 3.6074219,-1.3105469 1.265,-0.058 1.6436562,-0.070312 4.8476571,-0.070312 z m 6.40625,1.9921875 A 1.4400001,1.4400001 0 0 0 16.965827,5.59375 1.4400001,1.4400001 0 0 0 18.405281,7.0332031 1.4400001,1.4400001 0 0 0 19.846687,5.59375 1.4400001,1.4400001 0 0 0 18.405281,4.1542969 Z m -6.40625,1.6835937 C 8.5960306,5.8378906 5.8388744,8.597 5.8388744,12 c 0,3.403 2.7571562,6.162109 6.1601566,6.162109 3.403,0 6.162109,-2.759109 6.162109,-6.162109 0,-3.403 -2.759109,-6.1621094 -6.162109,-6.1621094 z m 0,2.1621094 c 2.209,0 4,1.791 4,4 0,2.209 -1.791,4 -4,4 -2.2090004,0 -4.0000004,-1.791 -4.0000004,-4 0,-2.209 1.791,-4 4.0000004,-4 z"
       style="display:inline;fill:#ffffff"
       transform="translate(245.05761,10.5)"
       inkscape:label="logo.instagram" /><text
       xml:space="preserve"
       style="font-style:normal;font-variant:normal;font-weight:bold;font-stretch:normal;font-size:30px;line-height:1.25;font-family:'Hanken Grotesk';-inkscape-font-specification:'Hanken Grotesk Bold';font-variant-ligatures:none;text-align:center;text-anchor:middle;fill:#191419;fill-opacity:1"
       x="135.52591"
       y="33.877541"
       id="text10"
       inkscape:label="text.instagram"><tspan
         sodipodi:role="line"
         id="tspan10"
         x="135.52591"
         y="33.877541"
         style="font-style:normal;font-variant:normal;font-weight:bold;font-stretch:normal;font-size:30px;font-family:'Hanken Grotesk';-inkscape-font-specification:'Hanken Grotesk Bold';text-align:center;text-anchor:middle;fill:#191419;fill-opacity:1">Instagram</tspan></text></g><g
     inkscape:groupmode="layer"
     id="g14"
     inkscape:label="Discord"
     style="display:none"><path
       style="display:inline;fill:#edd2a6;fill-opacity:1;stroke:none;stroke-width:1px;stroke-linecap:butt;stroke-linejoin:miter;stroke-opacity:1"
       d="M 5.6,0 0,15 h 40.000004 c -2.8,15 10.1,30 31.4,30 H 235.00004 V 0 Z"
       id="path12"
       inkscape:label="tile-left"
       sodipodi:nodetypes="cccsccc" /><path
       id="path13"
       style="display:inline;fill:#5865f2;fill-opacity:1;stroke:none;stroke-width:1px;stroke-linecap:butt;stroke-linejoin:miter;stroke-opacity:1"
       inkscape:label="tile-right.discord"
       d="m 235,0 -16.88477,45 h 45 51.28516 L 320,30 h -8.59961 C 290.00047,30 277.20012,14.999947 280,0 Z" /><path
       d="m 265.37555,14.870113 c -1.53,-0.702 -3.17,-1.219 -4.885,-1.515 -0.031,-0.006 -0.062,0.009 -0.079,0.037 -0.211,0.375 -0.445,0.865 -0.608,1.249 -1.845,-0.276 -3.68,-0.276 -5.487,0 -0.163,-0.393 -0.406,-0.874 -0.617,-1.249 -0.017,-0.028 -0.048,-0.042 -0.079,-0.037 -1.714,0.295 -3.354,0.812 -4.885,1.515 -0.013,0.005 -0.025,0.015 -0.032,0.027 -3.111,4.648 -3.964,9.182 -3.546,13.66 0.002,0.022 0.014,0.043 0.031,0.056 2.053,1.508 4.041,2.423 5.993,3.029 0.031,0.01 0.064,-0.002 0.084,-0.028 0.462,-0.63 0.873,-1.295 1.226,-1.994 0.021,-0.041 0.001,-0.09 -0.042,-0.106 -0.653,-0.248 -1.274,-0.55 -1.872,-0.892 -0.047,-0.028 -0.051,-0.095 -0.008,-0.128 0.126,-0.094 0.252,-0.192 0.372,-0.291 0.022,-0.018 0.052,-0.022 0.078,-0.01 3.928,1.793 8.18,1.793 12.061,0 0.026,-0.012 0.056,-0.009 0.079,0.01 0.12,0.099 0.246,0.198 0.373,0.292 0.044,0.032 0.041,0.1 -0.007,0.128 -0.598,0.349 -1.219,0.645 -1.873,0.891 -0.043,0.016 -0.061,0.066 -0.041,0.107 0.36,0.698 0.772,1.363 1.225,1.993 0.019,0.027 0.053,0.038 0.084,0.029 1.961,-0.607 3.95,-1.522 6.002,-3.029 0.018,-0.013 0.029,-0.033 0.031,-0.055 0.5,-5.177 -0.838,-9.674 -3.548,-13.66 -0.005,-0.014 -0.017,-0.024 -0.03,-0.029 z m -12.297,10.961 c -1.183,0 -2.157,-1.086 -2.157,-2.419 0,-1.333 0.955,-2.419 2.157,-2.419 1.211,0 2.176,1.095 2.157,2.419 0,1.334 -0.956,2.419 -2.157,2.419 z m 7.975,0 c -1.182,0 -2.157,-1.086 -2.157,-2.419 0,-1.333 0.955,-2.419 2.157,-2.419 1.211,0 2.176,1.095 2.157,2.419 0,1.334 -0.946,2.419 -2.157,2.419 z"
       fill="#ffffff"
       id="path1-6"
       inkscape:label="logo.discord"
       style="display:inline" /><text
       xml:space="preserve"
       style="font-style:normal;font-variant:normal;font-weight:bold;font-stretch:normal;font-size:30px;line-height:1.25;font-family:'Hanken Grotesk';-inkscape-font-specification:'Hanken Grotesk Bold';font-variant-ligatures:none;text-align:center;text-anchor:middle;fill:#191419;fill-opacity:1"
       x="135.52591"
       y="33.877541"
       id="text14"
       inkscape:label="text.discord"><tspan
         sodipodi:role="line"
         id="tspan14"
         x="135.52591"
         y="33.877541"
         style="font-style:normal;font-variant:normal;font-weight:bold;font-stretch:normal;font-size:30px;font-family:'Hanken Grotesk';-inkscape-font-specification:'Hanken Grotesk Bold';text-align:center;text-anchor:middle;fill:#191419;fill-opacity:1">Discord</tspan></text></g><g
     inkscape:groupmode="layer"
     id="g16"
     inkscape:label="Patreon"
     style="display:none"><path
       style="display:inline;fill:#edd2a6;fill-opacity:1;stroke:none;stroke-width:1px;stroke-linecap:butt;stroke-linejoin:miter;stroke-opacity:1"
       d="M 5.6,0 0,15 h 40.000004 c -2.8,15 10.1,30 31.4,30 H 235.00004 V 0 Z"
       id="path14"
       inkscape:label="tile-left"
       sodipodi:nodetypes="cccsccc" /><path
       id="path15"
       style="display:inline;fill:#191419;fill-opacity:1;stroke:none;stroke-width:1px;stroke-linecap:butt;stroke-linejoin:miter;stroke-opacity:1"
       inkscape:label="tile-right.patreon"
       d="m 235,0 -16.88477,45 h 45 51.28516 L 320,30 h -8.59961 C 290.00047,30 277.20012,14.999947 280,0 Z" /><path
       class="st0"
       d="M 1033.05,324.45 C 1032.86,186.55 925.46,73.53 799.45,32.75 642.97,-17.89 436.59,-10.55 287.17,59.95 106.07,145.41 49.18,332.61 47.06,519.31 c -1.74,153.5 13.58,557.79 241.62,560.67 169.44,2.15 194.67,-216.18 273.07,-321.33 55.78,-74.81 127.6,-95.94 216.01,-117.82 151.95,-37.61 255.51,-157.53 255.29,-316.38 z"
       fill="#ffffff"
       id="path1-68"
       inkscape:label="logo.patreon"
       style="display:inline"
       transform="matrix(0.02222222,0,0,0.02222217,245.05766,10.500105)" /><text
       xml:space="preserve"
       style="font-style:normal;font-variant:normal;font-weight:bold;font-stretch:normal;font-size:30px;line-height:1.25;font-family:'Hanken Grotesk';-inkscape-font-specification:'Hanken Grotesk Bold';font-variant-ligatures:none;text-align:center;text-anchor:middle;fill:#191419;fill-opacity:1"
       x="135.52591"
       y="33.877541"
       id="text16"
       inkscape:label="text.youtube"><tspan
         sodipodi:role="line"
         id="tspan16"
         x="135.52591"
         y="33.877541"
         style="font-style:normal;font-variant:normal;font-weight:bold;font-stretch:normal;font-size:30px;font-family:'Hanken Grotesk';-inkscape-font-specification:'Hanken Grotesk Bold';text-align:center;text-anchor:middle;fill:#191419;fill-opacity:1">Patreon</tspan></text></g><g
     inkscape:groupmode="layer"
     id="g18"
     inkscape:label="Bluesky"
     style="display:none"><path
       style="display:inline;fill:#edd2a6;fill-opacity:1;stroke:none;stroke-width:1px;stroke-linecap:butt;stroke-linejoin:miter;stroke-opacity:1"
       d="M 5.6,0 0,15 h 40.000004 c -2.8,15 10.1,30 31.4,30 H 235.00004 V 0 Z"
       id="path16"
       inkscape:label="tile-left"
       sodipodi:nodetypes="cccsccc" /><path
       id="path17"
       style="display:inline;fill:#1185fe;fill-opacity:1;stroke:none;stroke-width:1px;stroke-linecap:butt;stroke-linejoin:miter;stroke-opacity:1"
       inkscape:label="tile-right.bluesky"
       d="m 235,0 -16.88477,45 h 45 51.28516 L 320,30 h -8.59961 C 290.00047,30 277.20012,14.999947 280,0 Z" /><path
       d="m 250.25991,13.356562 c 2.75155,2.06569 5.71099,6.254239 6.7977,8.501789 1.08672,-2.24755 4.04616,-6.436099 6.79771,-8.501789 1.98536,-1.490536 5.20229,-2.643803 5.20229,1.026 0,0.732929 -0.42021,6.156887 -0.66667,7.037535 -0.85669,3.061394 -3.97838,3.842239 -6.75528,3.369634 4.85387,0.826098 6.0886,3.562437 3.42194,6.298774 -5.06451,5.196846 -7.2791,-1.303901 -7.84656,-2.969619 -0.10403,-0.305366 -0.15271,-0.448225 -0.15343,-0.326747 -7.5e-4,-0.121478 -0.0494,0.02138 -0.15342,0.326747 -0.56746,1.665718 -2.78205,8.166465 -7.84656,2.969619 -2.66666,-2.736337 -1.43193,-5.472676 3.42194,-6.298774 -2.7769,0.472605 -5.89859,-0.30824 -6.75528,-3.369634 -0.24646,-0.880648 -0.66668,-6.304606 -0.66668,-7.037535 0,-3.669803 3.21693,-2.516536 5.2023,-1.026 z"
       fill="#ffffff"
       id="path1-1"
       style="display:inline;stroke-width:0.09375"
       inkscape:label="logo.bluesky" /><text
       xml:space="preserve"
       style="font-style:normal;font-variant:normal;font-weight:bold;font-stretch:normal;font-size:30px;line-height:1.25;font-family:'Hanken Grotesk';-inkscape-font-specification:'Hanken Grotesk Bold';font-variant-ligatures:none;text-align:center;text-anchor:middle;fill:#191419;fill-opacity:1"
       x="135.52591"
       y="33.877541"
       id="text18"
       inkscape:label="text.bluesky"><tspan
         sodipodi:role="line"
         id="tspan18"
         x="135.52591"
         y="33.877541"
         style="font-style:normal;font-variant:normal;font-weight:bold;font-stretch:normal;font-size:30px;font-family:'Hanken Grotesk';-inkscape-font-specification:'Hanken Grotesk Bold';text-align:center;text-anchor:middle;fill:#191419;fill-opacity:1">Bluesky</tspan></text></g><g
     inkscape:groupmode="layer"
     id="g20"
     inkscape:label="Paypal"
     style="display:none"><path
       style="display:inline;fill:#edd2a6;fill-opacity:1;stroke:none;stroke-width:1px;stroke-linecap:butt;stroke-linejoin:miter;stroke-opacity:1"
       d="M 5.6,0 0,15 h 40.000004 c -2.8,15 10.1,30 31.4,30 H 235.00004 V 0 Z"
       id="path18"
       inkscape:label="tile-left"
       sodipodi:nodetypes="cccsccc" /><path
       id="path19"
       style="display:inline;fill:#0551b5;fill-opacity:1;stroke:none;stroke-width:1px;stroke-linecap:butt;stroke-linejoin:miter;stroke-opacity:1"
       inkscape:label="tile-right.discord"
       d="m 235,0 -16.88477,45 h 45 51.28516 L 320,30 h -8.59961 C 290.00047,30 277.20012,14.999947 280,0 Z" /><path
       d="m 267.06834,21.914 c -0.871,4.416 -3.815,5.948 -7.569,5.948 h -0.57 c -0.481,0 -0.871,0.33 -0.931,0.781 l -0.06,0.24 -0.721,4.626 -0.03,0.21 c -0.091,0.451 -0.482,0.781 -0.932,0.781 h -3.965 c -0.33,-0.03 -0.54,-0.33 -0.48,-0.631 l 0.3,-2.042 h -4.686 c -0.36,-0.03 -0.601,-0.36 -0.54,-0.721 l 3.123,-19.705 c 0.09,-0.511 0.54,-0.901 1.051,-0.901 h 7.449 c 2.583,0 4.596,0.54 5.677,1.802 1.021,1.171 1.321,2.433 1.021,4.295 -0.24,-0.12 -0.511,-0.24 -0.811,-0.33 -0.39,-0.12 -0.781,-0.21 -1.171,-0.27 -0.57,-0.09 -1.231,-0.15 -1.922,-0.15 h -5.827 c -0.481,0 -0.871,0.33 -0.931,0.781 l -1.261,7.87 -0.04,0.248 c 0.097,-0.504 0.526,-0.908 1.061,-0.908 h 2.193 c 4.296,0 7.66,-1.742 8.621,-6.789 0.03,-0.15 0.06,-0.3 0.09,-0.45 0.42,0.21 0.781,0.481 1.081,0.841 0.96,1.08 1.14,2.642 0.78,4.474 z"
       fill="#ffffff"
       id="path1-79"
       inkscape:label="logo.paypal" /><text
       xml:space="preserve"
       style="font-style:normal;font-variant:normal;font-weight:bold;font-stretch:normal;font-size:30px;line-height:1.25;font-family:'Hanken Grotesk';-inkscape-font-specification:'Hanken Grotesk Bold';font-variant-ligatures:none;text-align:center;text-anchor:middle;fill:#191419;fill-opacity:1"
       x="135.52591"
       y="33.877541"
       id="text20"
       inkscape:label="text.paypal"><tspan
         sodipodi:role="line"
         id="tspan20"
         x="135.52591"
         y="33.877541"
         style="font-style:normal;font-variant:normal;font-weight:bold;font-stretch:normal;font-size:30px;font-family:'Hanken Grotesk';-inkscape-font-specification:'Hanken Grotesk Bold';text-align:center;text-anchor:middle;fill:#191419;fill-opacity:1">PayPal</tspan></text></g><g
     inkscape:groupmode="layer"
     id="g22"
     inkscape:label="Tiktok"
     style="display:none"><path
       style="display:inline;fill:#edd2a6;fill-opacity:1;stroke:none;stroke-width:1px;stroke-linecap:butt;stroke-linejoin:miter;stroke-opacity:1"
       d="M 5.6,0 0,15 h 40.000004 c -2.8,15 10.1,30 31.4,30 H 235.00004 V 0 Z"
       id="path20"
       inkscape:label="tile-left"
       sodipodi:nodetypes="cccsccc" /><path
       id="path21"
       style="display:inline;fill:url(#linearGradient23);fill-opacity:1;stroke:none;stroke-width:1px;stroke-linecap:butt;stroke-linejoin:miter;stroke-opacity:1"
       inkscape:label="tile-right.tiktok"
       d="m 235,0 -16.88477,45 h 45 51.28516 L 320,30 h -8.59961 C 290.00047,30 277.20012,14.999947 280,0 Z" /><path
       d="m 267.52161,20.3665 c -2.139,0 -4.122,-0.684 -5.74,-1.846 v 8.385 c 0,4.188 -3.407,7.594 -7.594,7.594 -1.618,0 -3.119,-0.51 -4.352,-1.376 -1.958,-1.375 -3.242,-3.649 -3.242,-6.218 0,-4.188 3.407,-7.595 7.595,-7.595 0.348,0 0.688,0.029 1.023,0.074 v 0.977 3.235 c -0.324,-0.101 -0.666,-0.16 -1.023,-0.16 -1.912,0 -3.468,1.556 -3.468,3.469 0,1.332 0.756,2.489 1.86,3.07 0.481,0.253 1.028,0.398 1.609,0.398 1.868,0 3.392,-1.486 3.462,-3.338 l 0.003,-16.535 h 4.126 c 0,0.358 0.035,0.707 0.097,1.047 0.291,1.572 1.224,2.921 2.517,3.764 0.9,0.587 1.974,0.93 3.126,0.93 v 4.125 z"
       fill="#ffffff"
       id="path1-12"
       inkscape:label="logo.tiktok"
       style="display:inline" /><text
       xml:space="preserve"
       style="font-style:normal;font-variant:normal;font-weight:bold;font-stretch:normal;font-size:30px;line-height:1.25;font-family:'Hanken Grotesk';-inkscape-font-specification:'Hanken Grotesk Bold';font-variant-ligatures:none;text-align:center;text-anchor:middle;fill:#191419;fill-opacity:1"
       x="135.52591"
       y="33.877541"
       id="text22"
       inkscape:label="text.tiktok"><tspan
         sodipodi:role="line"
         id="tspan22"
         x="135.52591"
         y="33.877541"
         style="font-style:normal;font-variant:normal;font-weight:bold;font-stretch:normal;font-size:30px;font-family:'Hanken Grotesk';-inkscape-font-specification:'Hanken Grotesk Bold';text-align:center;text-anchor:middle;fill:#191419;fill-opacity:1">TikTok</tspan></text></g><g
     inkscape:groupmode="layer"
     id="g7"
     inkscape:label="Tipeee"
     style="display:inline"><path
       style="display:inline;fill:#edd2a6;fill-opacity:1;stroke:none;stroke-width:1px;stroke-linecap:butt;stroke-linejoin:miter;stroke-opacity:1"
       d="M 5.6,0 0,15 h 40.000004 c -2.8,15 10.1,30 31.4,30 H 235.00004 V 0 Z"
       id="path4"
       inkscape:label="tile-left"
       sodipodi:nodetypes="cccsccc" /><path
       id="path5"
       style="display:inline;fill:#d64758;fill-opacity:1;stroke:none;stroke-width:1px;stroke-linecap:butt;stroke-linejoin:miter;stroke-opacity:1"
       inkscape:label="tile-right.tipeee"
       d="m 235,0 -16.88477,45 h 45 51.28516 L 320,30 h -8.59961 C 290.00047,30 277.20012,14.999947 280,0 Z" /><path
       d="m 241.48526,20.019147 h 1.05106 v -1.797873 l 3.62341,-1.161703 v 2.959576 h 1.8532 v 2.558511 h -1.8532 v 3.498939 q 0,0.248936 -0.0138,0.525532 0,0.276596 0.0414,0.511702 0.0553,0.235107 0.17978,0.387234 0.13831,0.138298 0.42873,0.138298 0.19361,0 0.56702,-0.09681 0.38724,-0.124468 0.66383,-0.235106 v 2.517022 q -0.22128,0.09681 -0.55319,0.152128 -0.33192,0.08298 -0.69149,0.124468 -0.35957,0.04149 -0.66383,0.05532 -0.29043,0.04149 -0.47022,0.04149 -1.10637,0 -1.72872,-0.290426 -0.60851,-0.304256 -0.91277,-0.829788 -0.29042,-0.539361 -0.3734,-1.3 -0.0691,-0.760639 -0.0968,-1.701064 v -3.498938 h -1.05107 z m 12.82022,9.819153 h -5.50426 v -2.572342 h 0.82979 v -4.6883 h -0.82979 v -2.558511 h 4.55 v 7.246811 h 0.95426 z m -4.95106,-12.68192 q 0,-0.331915 0.13829,-0.69149 0.1383,-0.359575 0.38723,-0.65 0.2766,-0.290426 0.66383,-0.470213 0.4149,-0.193617 0.9266,-0.193617 0.5117,0 0.89893,0.193617 0.4149,0.179787 0.6915,0.470213 0.27659,0.290425 0.41489,0.65 0.15213,0.359575 0.15213,0.69149 0,0.829787 -0.5532,1.410639 -0.55319,0.567021 -1.60425,0.567021 -0.47021,0 -0.85744,-0.179787 -0.37341,-0.165958 -0.67767,-0.442554 -0.26276,-0.290425 -0.42872,-0.65 -0.15212,-0.345744 -0.15212,-0.705319 z m 13.53936,7.896812 q 0,-0.428724 -0.0968,-0.857447 -0.0968,-0.456383 -0.29043,-0.788299 -0.17978,-0.331915 -0.45638,-0.553192 -0.24894,-0.221276 -0.56702,-0.221276 -0.29043,0 -0.56702,0.179787 -0.24894,0.179788 -0.45639,0.511702 -0.19361,0.318086 -0.31808,0.788299 -0.0968,0.456383 -0.0553,1.037234 0,0.511702 0.12446,0.940426 0.12448,0.414894 0.31809,0.746809 0.19362,0.318085 0.45638,0.484042 0.24894,0.179788 0.52554,0.179788 0.62234,0 0.99574,-0.66383 0.38723,-0.66383 0.38723,-1.784043 z m -7.62022,6.223407 h 0.82979 v -8.643621 h -0.82979 v -2.613831 h 4.49468 l 0.33192,0.69149 q 0.1383,-0.09681 0.35957,-0.235106 0.23511,-0.152128 0.52554,-0.276596 0.29042,-0.138299 0.66382,-0.235107 0.37342,-0.09681 0.8298,-0.09681 1.13404,0 2.00531,0.414894 0.88511,0.414894 1.45214,1.120214 0.59467,0.705319 0.88511,1.645745 0.29042,0.926596 0.29042,1.96383 0,1.175533 -0.35958,2.115959 -0.33191,0.926596 -0.94043,1.576596 -0.59467,0.65 -1.41064,0.995745 -0.82978,0.359575 -1.7702,0.359575 -0.60851,0 -1.07873,-0.09681 -0.45639,-0.09681 -0.76064,-0.235107 -0.29042,-0.138297 -0.47021,-0.248936 -0.17979,-0.138297 -0.23511,-0.179787 v 1.977661 h 1.0649 v 2.572341 h -5.86384 z m 12.58511,-3.429789 q 0,-0.373405 0.13831,-0.746809 0.15212,-0.373404 0.45638,-0.66383 0.29042,-0.290425 0.70532,-0.470213 0.41489,-0.193617 0.94042,-0.193617 0.52553,0 0.94043,0.179787 0.42872,0.152128 0.7468,0.456383 0.31809,0.276596 0.47022,0.663831 0.17978,0.373404 0.17978,0.788298 0,0.829787 -0.62233,1.438298 -0.62234,0.594681 -1.7149,0.594681 -0.47021,0 -0.88511,-0.179787 -0.40106,-0.207447 -0.71915,-0.484043 -0.30425,-0.276596 -0.47021,-0.62234 -0.16596,-0.373405 -0.16596,-0.774469 z m 0.083,-7.99362 v -3.734045 h 4.68831 v 3.734045 l -1.03724,4.951065 h -2.58617 z"
       fill="#ffffff"
       id="path1-8"
       style="display:inline;stroke-width:1.38298"
       inkscape:label="logo.tipeee" /><text
       xml:space="preserve"
       style="font-style:normal;font-variant:normal;font-weight:bold;font-stretch:normal;font-size:30px;line-height:1.25;font-family:'Hanken Grotesk';-inkscape-font-specification:'Hanken Grotesk Bold';font-variant-ligatures:none;text-align:center;text-anchor:middle;fill:#191419;fill-opacity:1"
       x="135.52591"
       y="33.877541"
       id="text7"
       inkscape:label="text.tipeee"><tspan
         sodipodi:role="line"
         id="tspan7"
         x="135.52591"
         y="33.877541"
         style="font-style:normal;font-variant:normal;font-weight:bold;font-stretch:normal;font-size:30px;font-family:'Hanken Grotesk';-inkscape-font-specification:'Hanken Grotesk Bold';text-align:center;text-anchor:middle;fill:#191419;fill-opacity:1">Tipeee</tspan></text></g><g
     inkscape:groupmode="layer"
     id="layer2"
     inkscape:label="Twitch"
     style="display:none"><path
       style="display:inline;fill:#edd2a6;fill-opacity:1;stroke:none;stroke-width:1px;stroke-linecap:butt;stroke-linejoin:miter;stroke-opacity:1"
       d="M 5.6,0 0,15 h 40.000004 c -2.8,15 10.1,30 31.4,30 H 235.00004 V 0 Z"
       id="path2"
       inkscape:label="tile-left"
       sodipodi:nodetypes="cccsccc" /><path
       id="path3"
       style="display:inline;fill:#9146ff;fill-opacity:1;stroke:none;stroke-width:1px;stroke-linecap:butt;stroke-linejoin:miter;stroke-opacity:1"
       inkscape:label="tile-right.twitch"
       d="m 235,0 -16.88477,45 h 45 51.28516 L 320,30 h -8.59961 C 290.00047,30 277.20012,14.999947 280,0 Z" /><path
       id="path1-82"
       d="M 5.9997181,-4.21875e-4 1.7145619,4.2866875 V 19.714422 H 6.85714 v 4.285156 l 4.285156,-4.285156 h 3.429688 l 7.714843,-7.714844 V -4.21875e-4 Z M 6.85714,1.7144219 h 13.712891 v 9.4277341 l -3.427735,3.429688 h -3.429687 l -3,3 v -3 H 6.85714 Z m 4.712891,3 V 9.857 h 1.714843 V 4.7144219 Z m 4.716796,0 V 9.857 h 1.712891 V 4.7144219 Z"
       style="display:inline;fill:#ffffff"
       transform="translate(245.48661,12.643)"
       inkscape:label="logo.twitch" /><text
       xml:space="preserve"
       style="font-style:normal;font-variant:normal;font-weight:bold;font-stretch:normal;font-size:30px;line-height:1.25;font-family:'Hanken Grotesk';-inkscape-font-specification:'Hanken Grotesk Bold';font-variant-ligatures:none;text-align:center;text-anchor:middle;fill:#191419;fill-opacity:1"
       x="135.52591"
       y="33.877541"
       id="text6"
       inkscape:label="text.youtube"><tspan
         sodipodi:role="line"
         id="tspan6"
         x="135.52591"
         y="33.877541"
         style="font-style:normal;font-variant:normal;font-weight:bold;font-stretch:normal;font-size:30px;font-family:'Hanken Grotesk';-inkscape-font-specification:'Hanken Grotesk Bold';text-align:center;text-anchor:middle;fill:#191419;fill-opacity:1">Twitch</tspan></text></g><g
     inkscape:groupmode="layer"
     id="g26"
     inkscape:label="Website"
     style="display:none"><path
       style="display:inline;fill:#edd2a6;fill-opacity:1;stroke:none;stroke-width:1px;stroke-linecap:butt;stroke-linejoin:miter;stroke-opacity:1"
       d="M 5.6,0 0,15 h 40.000004 c -2.8,15 10.1,30 31.4,30 H 235.00004 V 0 Z"
       id="path24"
       inkscape:label="tile-left"
       sodipodi:nodetypes="cccsccc" /><path
       id="path25"
       style="display:inline;fill:#370f39;fill-opacity:1;stroke:none;stroke-width:1px;stroke-linecap:butt;stroke-linejoin:miter;stroke-opacity:1"
       inkscape:label="tile-right.twitch"
       d="m 235,0 -16.88477,45 h 45 51.28516 L 320,30 h -8.59961 C 290.00047,30 277.20012,14.999947 280,0 Z" /><path
       d="m 253.5,10.5 c -3.5875,0 -6.5,2.8375 -6.5,6.5875 0.006,2.975 1.7125,3.9125 3,3.9125 1.38125,0 2.5,-1.11875 2.5,-2.5 0,-1.38125 -1.11875,-2.5 -2.5,-2.5 -0.81875,0 -1.54375,0.39375 -2,1 0,-3.6625 3.25,-5.1 6,-4.85 V 33.5 c -1,0 -4,-1 -4,-6 v -2.0625 l -3,1.125 V 29 c 0,3.2625 2.2375,5.5 5,5.5 h 5 v -23 c -1.00625,-0.6375 -2.225,-1 -3.5,-1 z m 4.5,1.8125 V 34.5 h 5 c 2.7625,0 5,-2.2375 5,-5.5 0,-3.31875 -1.9625,-5.4 -4.81875,-5.4 1.36875,-1.51875 1.025,-3.4875 -0.5,-5.04375 -1.68125,-1.7125 -2.4625,-2.875 -3.175,-4.2 C 258.7875,13.03125 258,12.3125 258,12.3125 Z M 261,19 c 0.96875,0.80625 2,1.6625 2,2.875 0,0.98125 -0.28125,1.6625 -1.25,2.025 L 261,24.18125 Z m 2.1375,5.56875 c 0.96875,0 1.8625,0.54375 1.8625,2.9375 C 265,32.5 262,33.5 261,33.5 v -8.31875 c 0.75,-0.28125 1.55,-0.6125 2.1375,-0.6125 z"
       fill="#ffffff"
       stroke="none"
       id="path1-11"
       style="stroke-width:0.0625"
       inkscape:label="logo.jotabe" /><text
       xml:space="preserve"
       style="font-style:normal;font-variant:normal;font-weight:bold;font-stretch:normal;font-size:30px;line-height:1.25;font-family:'Hanken Grotesk';-inkscape-font-specification:'Hanken Grotesk Bold';font-variant-ligatures:none;text-align:center;text-anchor:middle;display:none;fill:#191419;fill-opacity:1"
       x="135.52591"
       y="33.877541"
       id="text29"
       inkscape:label="text.youtube"><tspan
         sodipodi:role="line"
         id="tspan29"
         x="0"
         y="0"
         style="font-style:normal;font-variant:normal;font-weight:bold;font-stretch:normal;font-size:30px;font-family:'Hanken Grotesk';-inkscape-font-specification:'Hanken Grotesk Bold';text-align:center;text-anchor:middle;fill:#191419;fill-opacity:1">Jotabê</tspan></text><path
       d="m 104.9155,4.5033132 c -4.78314,0 -8.6663,3.7831739 -8.6663,8.7829748 0.008,3.966494 2.283235,5.21644 3.99983,5.21644 1.84159,0 3.33319,-1.4916 3.33319,-3.333187 0,-1.841587 -1.4916,-3.3332 -3.33319,-3.3332 -1.091625,0 -2.058245,0.524987 -2.666555,1.33328 0,-4.8831339 4.333145,-6.7997208 7.999665,-6.4664009 V 35.168718 c -1.33328,0 -5.33311,-1.333281 -5.33311,-7.999682 v -2.74988 L 96.2492,25.91909 v 3.249867 c 0,4.349827 2.983205,7.333028 6.66638,7.333028 h 6.66638 V 5.8365934 c -1.3416,-0.8499735 -2.96653,-1.3332802 -4.66646,-1.3332802 z m 41.99826,2.4165599 V 35.168718 c -1.33328,0 -1.79992,-0.84164 -2.07491,-2.383241 -0.25,-1.424947 -0.56665,-3.224867 -1.35828,-7.716348 -0.46665,-2.64156 -2.63323,-3.59152 -5.23312,-3.59152 -1.37494,0 -2.43323,0.374987 -3.46652,0.758307 l -4.53315,1.69992 V 13.169621 l -5.99975,2.249907 v 1.33328 c 1.0583,-0.391653 1.99992,0.449974 1.99992,1.74992 v 6.933055 l -2.3499,0.883293 c -0.71664,-2.599893 -2.60823,-4.424814 -6.31641,-4.424814 -5.04146,0 -6.6664,3.941508 -6.6664,7.333028 0,3.941507 1.53328,7.274695 6.6664,7.274695 5.32478,0 6.66639,-3.333188 6.66639,-7.333028 0,-0.558307 -0.0333,-1.099947 -0.1,-1.624934 l 2.09992,-0.791627 v 5.733095 c 0,2.324907 0.66664,4.016494 3.33319,4.016494 1.57493,0.03333 3.02488,-0.566641 4.46648,-1.116614 0.64164,0.69164 1.58327,1.116614 2.86655,1.116614 1.28328,0 3.3582,-0.691627 4.51648,-1.124947 0.46665,0.791626 1.26661,1.124947 2.36657,1.124947 h 9.78292 c 3.68319,0 6.6664,-2.983201 6.6664,-7.333028 0,-4.424814 -2.61656,-7.199695 -6.42473,-7.199695 1.82492,-2.02492 1.3666,-4.649814 -0.66664,-6.724721 -2.24157,-2.28324 -3.2832,-3.833187 -4.23316,-5.5997739 -0.95829,-1.7666 -2.00825,-2.724894 -2.00825,-2.724894 z m 3.99984,8.9163079 c 1.29161,1.074947 2.66654,2.216574 2.66654,3.833174 0,1.30828 -0.37497,2.216574 -1.66658,2.699881 l -0.99996,0.374986 z m 18.66589,0.883294 c -2.2249,0.833293 -4.44148,1.6666 -6.6664,2.499894 v 1.33328 l 3.99984,-1.499934 c 0.21666,1.249947 1.33328,2.166574 2.66656,1.6666 l 3.99983,-1.499946 v -1.333281 c 0,0 -0.71664,0.266654 -1.33328,0.499987 -1.33327,0.499973 -2.44989,-0.416653 -2.66655,-1.6666 z m -1.33328,5.116454 c -5.24978,0 -6.66639,4.074827 -6.66639,7.333028 0,4.349827 2.98321,7.333028 6.66639,7.333028 2.33324,0 4.27483,-0.466641 6.66639,-1.999907 v -1.333281 c -6.10808,3.616508 -8.27465,0.149987 -8.97463,-2.799893 l 8.46632,-3.183201 c -0.69997,-3.949827 -3.14154,-5.333107 -6.15808,-5.349774 z m -31.41536,1.191613 c 1.39993,-0.03333 2.29989,0.849974 2.69154,2.658228 -4.00816,1.549933 -6.59138,3.041547 -6.60805,6.374734 0,0.808307 0.13333,1.583267 0.43331,2.25824 -2.17491,0.808307 -3.09154,-0.05827 -3.09987,-2.49156 0,-1.008294 -0.008,-3.474854 0,-6.574735 l 5.00813,-1.87492 c 0.58331,-0.216653 1.10828,-0.33332 1.57494,-0.349987 z m 31.02371,0.141667 c 1.73327,0.02507 2.24991,2.833214 2.49156,4.208161 l -4.63313,1.733253 c -0.44999,-3.2082 0.0416,-5.974747 2.14157,-5.941414 z m -50.36458,0 c -0.97496,0.891627 -1.36662,2.316574 -0.86663,3.633187 0.56664,1.508267 2.09991,2.358227 3.62484,2.124907 v 0.241654 c 0,3.3332 -0.81662,5.999761 -2.64988,5.999761 -1.8666,0 -2.68323,-2.666561 -2.69989,-5.999761 -0.0251,-3.908174 1.04996,-5.908081 2.59156,-5.999748 z m 36.2735,0.09173 c 1.29161,0 2.48322,0.72496 2.48322,3.916493 0,6.658068 -3.99982,7.991348 -5.3331,7.991348 V 24.077569 c 0.99996,-0.374986 2.06657,-0.816626 2.84988,-0.816626 z m -33.56529,4.36648 c -0.90829,0.06667 -1.80825,-0.61664 -1.80825,-1.6666 0,-0.69164 0.44999,-1.284107 1.04996,-1.538267 0.39165,0.7458 0.64997,1.80492 0.75829,3.204867 z m 19.54087,-0.674973 c 0.42498,2.399907 0.99162,5.608107 1.28328,7.241374 -2.49157,0.908294 -4.10817,0.399974 -4.10817,-2.633227 0.0249,-2.166587 0.95829,-3.774854 2.82489,-4.608147 z"
       fill="#000000"
       stroke="none"
       id="path1-7"
       style="display:inline;fill:#191419;fill-opacity:1;stroke-width:0.0833299"
       inkscape:label="text.jotabe-alt" /></g><g
     inkscape:groupmode="layer"
     id="g28"
     inkscape:label="Generic.rules"
     style="display:none"><path
       style="display:inline;fill:#edd2a6;fill-opacity:1;stroke:none;stroke-width:1px;stroke-linecap:butt;stroke-linejoin:miter;stroke-opacity:1"
       d="M 5.6,0 0,15 h 40.000004 c -2.8,15 10.1,30 31.4,30 H 235.00004 V 0 Z"
       id="path26"
       inkscape:label="tile-left"
       sodipodi:nodetypes="cccsccc" /><path
       id="path27"
       style="display:inline;fill:#edd2a6;fill-opacity:1;stroke:none;stroke-width:1px;stroke-linecap:butt;stroke-linejoin:miter;stroke-opacity:1"
       inkscape:label="tile-right"
       d="m 235,0 -16.88477,45 h 45 51.28516 L 320,30 h -8.59961 C 290.00047,30 277.20012,14.999947 280,0 Z" /><text
       xml:space="preserve"
       style="font-style:normal;font-variant:normal;font-weight:bold;font-stretch:normal;font-size:30px;line-height:1.25;font-family:'Hanken Grotesk';-inkscape-font-specification:'Hanken Grotesk Bold';font-variant-ligatures:none;text-align:center;text-anchor:middle;fill:#191419;fill-opacity:1"
       x="160.52499"
       y="33.877541"
       id="text28"
       inkscape:label="text.generic"><tspan
         sodipodi:role="line"
         id="tspan28"
         x="160.52499"
         y="33.877541"
         style="font-style:normal;font-variant:normal;font-weight:bold;font-stretch:normal;font-size:30px;font-family:'Hanken Grotesk';-inkscape-font-specification:'Hanken Grotesk Bold';text-align:center;text-anchor:middle;fill:#191419;fill-opacity:1">Règles du chat</tspan></text></g><g
     inkscape:groupmode="layer"
     id="g31"
     inkscape:label="Generic.credits"
     style="display:none"><path
       style="display:inline;fill:#edd2a6;fill-opacity:1;stroke:none;stroke-width:1px;stroke-linecap:butt;stroke-linejoin:miter;stroke-opacity:1"
       d="M 5.6,0 0,15 h 40.000004 c -2.8,15 10.1,30 31.4,30 H 235.00004 V 0 Z"
       id="path30"
       inkscape:label="tile-left"
       sodipodi:nodetypes="cccsccc" /><path
       id="path31"
       style="display:inline;fill:#edd2a6;fill-opacity:1;stroke:none;stroke-width:1px;stroke-linecap:butt;stroke-linejoin:miter;stroke-opacity:1"
       inkscape:label="tile-right"
       d="m 235,0 -16.88477,45 h 45 51.28516 L 320,30 h -8.59961 C 290.00047,30 277.20012,14.999947 280,0 Z" /><text
       xml:space="preserve"
       style="font-style:normal;font-variant:normal;font-weight:bold;font-stretch:normal;font-size:30px;line-height:1.25;font-family:'Hanken Grotesk';-inkscape-font-specification:'Hanken Grotesk Bold';font-variant-ligatures:none;text-align:center;text-anchor:middle;fill:#191419;fill-opacity:1"
       x="160.52499"
       y="33.877541"
       id="text31"
       inkscape:label="text.generic"><tspan
         sodipodi:role="line"
         id="tspan31"
         x="160.52499"
         y="33.877541"
         style="font-style:normal;font-variant:normal;font-weight:bold;font-stretch:normal;font-size:30px;font-family:'Hanken Grotesk';-inkscape-font-specification:'Hanken Grotesk Bold';text-align:center;text-anchor:middle;fill:#191419;fill-opacity:1">Crédits</tspan></text></g></svg>
