<?xml version="1.0" encoding="UTF-8" standalone="no"?>
<!-- Created with Inkscape (http://www.inkscape.org/) -->

<svg
   width="420"
   height="45.000031"
   viewBox="0 0 420.00001 45.000031"
   version="1.1"
   id="svg1"
   inkscape:version="1.4.2 (f4327f4, 2025-05-13)"
   sodipodi:docname="socials.svg"
   xml:space="preserve"
   inkscape:export-filename="..\socials\links\link-website.png"
   inkscape:export-xdpi="96"
   inkscape:export-ydpi="96"
   xmlns:inkscape="http://www.inkscape.org/namespaces/inkscape"
   xmlns:sodipodi="http://sodipodi.sourceforge.net/DTD/sodipodi-0.dtd"
   xmlns:xlink="http://www.w3.org/1999/xlink"
   xmlns="http://www.w3.org/2000/svg"
   xmlns:svg="http://www.w3.org/2000/svg"><sodipodi:namedview
     id="namedview1"
     pagecolor="#505050"
     bordercolor="#eeeeee"
     borderopacity="1"
     inkscape:showpageshadow="0"
     inkscape:pageopacity="0"
     inkscape:pagecheckerboard="0"
     inkscape:deskcolor="#505050"
     inkscape:document-units="px"
     inkscape:zoom="2.8284271"
     inkscape:cx="207.8894"
     inkscape:cy="-52.679456"
     inkscape:window-width="3840"
     inkscape:window-height="2131"
     inkscape:window-x="2551"
     inkscape:window-y="-9"
     inkscape:window-maximized="1"
     inkscape:current-layer="g42"
     showguides="true"><sodipodi:guide
       position="40.000005,3.0517579e-05"
       orientation="1,0"
       id="guide1"
       inkscape:locked="false" /><sodipodi:guide
       position="85.375002,37.500032"
       orientation="1,0"
       id="guide3"
       inkscape:locked="false" /><sodipodi:guide
       position="110,45.000031"
       orientation="-1,0"
       id="guide7"
       inkscape:locked="false"
       inkscape:label=""
       inkscape:color="rgb(0,134,229)" /></sodipodi:namedview><defs
     id="defs1"><linearGradient
       id="linearGradient22"
       inkscape:collect="always"><stop
         style="stop-color:#25f4ee;stop-opacity:1;"
         offset="0"
         id="stop22" /><stop
         style="stop-color:#000000;stop-opacity:1;"
         offset="0.33146065"
         id="stop24" /><stop
         style="stop-color:#000000;stop-opacity:1;"
         offset="0.66292137"
         id="stop25" /><stop
         style="stop-color:#fe2c55;stop-opacity:1;"
         offset="1"
         id="stop23" /></linearGradient><linearGradient
       id="linearGradient10"
       inkscape:collect="always"><stop
         style="stop-color:#f9ce34;stop-opacity:1;"
         offset="0"
         id="stop10" /><stop
         style="stop-color:#ee2a7b;stop-opacity:1;"
         offset="0.5"
         id="stop12" /><stop
         style="stop-color:#6228d7;stop-opacity:1;"
         offset="1"
         id="stop11" /></linearGradient><rect
       x="66.114487"
       y="0"
       width="168.88554"
       height="45"
       id="rect6" /><linearGradient
       inkscape:collect="always"
       xlink:href="#linearGradient10"
       id="linearGradient36"
       x1="5.5999999"
       y1="0"
       x2="85.375"
       y2="45.000031"
       gradientUnits="userSpaceOnUse" /><linearGradient
       inkscape:collect="always"
       xlink:href="#linearGradient22"
       id="linearGradient50"
       x1="48.000004"
       y1="5.3125"
       x2="93.374992"
       y2="23.679031"
       gradientUnits="userSpaceOnUse" /></defs><g
     inkscape:groupmode="layer"
     id="g23"
     inkscape:label="YouTube"
     style="display:none"><path
       style="display:inline;fill:#ee0f0f;fill-opacity:1;stroke:none;stroke-width:1px;stroke-linecap:butt;stroke-linejoin:miter;stroke-opacity:1"
       d="M 5.6,0 0,15 h 40.000004 c -2.8,15 10.1,30 31.4,30 H 102.25977 V 0 Z"
       id="path11"
       inkscape:label="tile-left.youtube"
       sodipodi:nodetypes="cccsccc" /><path
       id="path22"
       style="display:inline;fill:#edd2a6;fill-opacity:1;stroke:none;stroke-width:1px;stroke-linecap:butt;stroke-linejoin:miter;stroke-opacity:1"
       inkscape:label="tile-right"
       d="M 102.25977,-4.82422e-7 85.375001,45 l 277.740229,3.1e-5 h 51.28516 l 5.59961,-15 h -8.59961 C 390.00047,30.000031 377.20012,14.999978 380,3.0517578e-5 Z"
       sodipodi:nodetypes="cccccscc" /><g
       id="g3"
       inkscape:label="logo.youtube"
       transform="translate(-178.11523,3.118211e-5)"><rect
         style="display:inline;fill:#000000;fill-opacity:0;stroke-width:1.00416;stroke-linecap:round;stroke-linejoin:round"
         id="rect3"
         width="45.374989"
         height="45.000027"
         x="226.11523"
         y="-2.6948606e-05"
         inkscape:label="logo-square"
         ry="0" /><path
         d="m 260.30074,16.685986 c -0.276,-1.039 -1.089,-1.858 -2.122,-2.136 -1.871,-0.504 -9.376,-0.504 -9.376,-0.504 0,0 -7.505,0 -9.377,0.504 -1.03201,0.278 -1.845,1.096 -2.12101,2.136 -0.502,1.884 -0.502,5.814 -0.502,5.814 0,0 0,3.93 0.502,5.814 0.27601,1.039 1.089,1.858 2.12201,2.136 1.871,0.504 9.376,0.504 9.376,0.504 0,0 7.505,0 9.37699,-0.504 1.032,-0.278 1.84501,-1.096 2.12201,-2.136 0.50099,-1.884 0.50099,-5.814 0.50099,-5.814 0,0 0,-3.93 -0.50199,-5.814 z m -13.952,9.383 v -7.138 l 6.272,3.569 z"
         fill="#ffffff"
         id="path23"
         inkscape:label="logo.youtube" /></g><text
       xml:space="preserve"
       style="font-style:normal;font-variant:normal;font-weight:bold;font-stretch:normal;font-size:30px;line-height:1.25;font-family:'Hanken Grotesk';-inkscape-font-specification:'Hanken Grotesk Bold';font-variant-ligatures:none;text-align:start;text-anchor:start;fill:#191419;fill-opacity:1"
       x="109.88"
       y="32.680004"
       id="text23"
       inkscape:label="text.youtube"><tspan
         sodipodi:role="line"
         id="tspan23"
         x="109.88"
         y="32.680004"
         style="font-style:normal;font-variant:normal;font-weight:bold;font-stretch:normal;font-size:30px;font-family:'Hanken Grotesk';-inkscape-font-specification:'Hanken Grotesk Bold';text-align:start;text-anchor:start;fill:#191419;fill-opacity:1">@JotabeMusique</tspan></text></g><g
     inkscape:groupmode="layer"
     id="g35"
     inkscape:label="Instagram"
     style="display:none"><path
       style="display:inline;fill:url(#linearGradient36);stroke:none;stroke-width:1px;stroke-linecap:butt;stroke-linejoin:miter;stroke-opacity:1"
       d="M 5.6,0 0,15 h 40.000004 c -2.8,15 10.1,30 31.4,30 H 102.25977 V 0 Z"
       id="path32"
       inkscape:label="tile-left.instagram"
       sodipodi:nodetypes="cccsccc" /><path
       id="path33"
       style="display:inline;fill:#edd2a6;fill-opacity:1;stroke:none;stroke-width:1px;stroke-linecap:butt;stroke-linejoin:miter;stroke-opacity:1"
       inkscape:label="tile-right"
       d="M 102.25977,-4.82422e-7 85.375001,45 l 277.740229,3.1e-5 h 51.28516 l 5.59961,-15 h -8.59961 C 390.00047,30.000031 377.20012,14.999978 380,3.0517578e-5 Z"
       sodipodi:nodetypes="cccccscc" /><text
       xml:space="preserve"
       style="font-style:normal;font-variant:normal;font-weight:bold;font-stretch:normal;font-size:30px;line-height:1.25;font-family:'Hanken Grotesk';-inkscape-font-specification:'Hanken Grotesk Bold';font-variant-ligatures:none;text-align:start;text-anchor:start;display:inline;fill:#191419;fill-opacity:1"
       x="109.88"
       y="32.680004"
       id="text34"
       inkscape:label="text.youtube"><tspan
         sodipodi:role="line"
         id="tspan34"
         x="109.88"
         y="32.680004"
         style="font-style:normal;font-variant:normal;font-weight:bold;font-stretch:normal;font-size:30px;font-family:'Hanken Grotesk';-inkscape-font-specification:'Hanken Grotesk Bold';text-align:start;text-anchor:start;fill:#191419;fill-opacity:1">@jotabemusique</tspan></text><g
       id="g34"
       inkscape:label="logo.youtube"
       transform="translate(-178.11523,3.118211e-5)"><rect
         style="display:inline;fill:#000000;fill-opacity:0;stroke-width:1.00416;stroke-linecap:round;stroke-linejoin:round"
         id="rect33"
         width="45.374989"
         height="45.000027"
         x="226.11523"
         y="-2.6948606e-05"
         inkscape:label="logo-square"
         ry="0" /><path
         id="path1"
         d="m 248.80275,10.499982 c -3.259,0 -3.66727,0.01427 -4.94727,0.07227 -1.855,0.085 -3.69611,0.600406 -5.03711,1.941406 -1.346,1.346 -1.85836,3.185062 -1.94336,5.039062 -0.058,1.28 -0.0723,1.688266 -0.0723,4.947266 0,3.259 0.0143,3.667266 0.0723,4.947266 0.085,1.853 0.60436,3.701062 1.94336,5.039062 1.345,1.345 3.18511,1.856406 5.03711,1.941406 1.28,0.058 1.68827,0.07227 4.94727,0.07227 3.259,0 3.66922,-0.01427 4.94922,-0.07227 1.854,-0.085 3.69711,-0.601406 5.03711,-1.941406 1.347,-1.347 1.85836,-3.185062 1.94336,-5.039062 0.058,-1.28 0.0703,-1.688266 0.0703,-4.947266 0,-3.259 -0.0123,-3.667266 -0.0703,-4.947266 -0.085,-1.855 -0.60336,-3.699062 -1.94336,-5.039062 -1.343,-1.343 -3.18811,-1.857406 -5.03711,-1.941406 -1.28,-0.058 -1.69022,-0.07227 -4.94922,-0.07227 z m 0,2.162109 c 3.204,0 3.58461,0.01231 4.84961,0.07031 1.308,0.06 2.65442,0.357547 3.60742,1.310547 0.962,0.962 1.2525,2.295422 1.3125,3.607422 0.058,1.265 0.0703,1.645609 0.0703,4.84961 0,3.204 -0.0123,3.584609 -0.0703,4.849609 -0.059,1.300999 -0.3655,2.660422 -1.3125,3.607422 -0.962,0.962 -2.29442,1.250547 -3.60742,1.310547 -1.265,0.058 -1.64561,0.07031 -4.84961,0.07031 -3.204,0 -3.58266,-0.01231 -4.84766,-0.07031 -1.291,-0.059 -2.66842,-0.370547 -3.60742,-1.310547 -0.957,-0.957001 -1.2525,-2.303423 -1.3125,-3.607422 -0.058,-1.265 -0.0703,-1.645609 -0.0703,-4.849609 0,-3.204 0.0123,-3.584609 0.0703,-4.849609 0.059,-1.296 0.3685,-2.663422 1.3125,-3.607422 0.96,-0.96 2.29842,-1.250547 3.60742,-1.310547 1.265,-0.058 1.64366,-0.07031 4.84766,-0.07031 z m 6.40625,1.992188 a 1.4400001,1.4400001 0 0 0 -1.43946,1.439453 1.4400001,1.4400001 0 0 0 1.43946,1.439453 1.4400001,1.4400001 0 0 0 1.4414,-1.439453 1.4400001,1.4400001 0 0 0 -1.4414,-1.439453 z m -6.40625,1.683594 c -3.403,0 -6.16016,2.759109 -6.16016,6.162109 0,3.403 2.75716,6.162109 6.16016,6.162109 3.403,0 6.16211,-2.759109 6.16211,-6.162109 0,-3.403 -2.75911,-6.162109 -6.16211,-6.162109 z m 0,2.162109 c 2.209,0 4,1.791 4,4 0,2.209 -1.791,4 -4,4 -2.209,0 -4,-1.791 -4,-4 0,-2.209 1.791,-4 4,-4 z"
         style="display:inline;fill:#ffffff"
         inkscape:label="logo.instagram" /></g></g><g
     inkscape:groupmode="layer"
     id="g39"
     inkscape:label="Patreon"
     style="display:none"><path
       style="display:inline;fill:#191419;fill-opacity:1;stroke:none;stroke-width:1px;stroke-linecap:butt;stroke-linejoin:miter;stroke-opacity:1"
       d="M 5.6,0 0,15 h 40.000004 c -2.8,15 10.1,30 31.4,30 H 102.25977 V 0 Z"
       id="path36"
       inkscape:label="tile-left.patreon"
       sodipodi:nodetypes="cccsccc" /><path
       id="path37"
       style="display:inline;fill:#edd2a6;fill-opacity:1;stroke:none;stroke-width:1px;stroke-linecap:butt;stroke-linejoin:miter;stroke-opacity:1"
       inkscape:label="tile-right"
       d="M 102.25977,-4.82422e-7 85.375001,45 l 277.740229,3.1e-5 h 51.28516 l 5.59961,-15 h -8.59961 C 390.00047,30.000031 377.20012,14.999978 380,3.0517578e-5 Z"
       sodipodi:nodetypes="cccccscc" /><g
       id="g38"
       inkscape:label="logo.patreon"
       transform="translate(-178.11523,3.118211e-5)"><rect
         style="display:inline;fill:#000000;fill-opacity:0;stroke-width:1.00416;stroke-linecap:round;stroke-linejoin:round"
         id="rect37"
         width="45.374989"
         height="45.000027"
         x="226.11523"
         y="-2.6948606e-05"
         inkscape:label="logo-square"
         ry="0" /><path
         class="st0"
         d="m 259.75944,17.710074 c -0.004,-3.064437 -2.39089,-5.575987 -5.19111,-6.482207 -3.47733,-1.125331 -8.06355,-0.96222 -11.384,0.604443 -4.02444,1.899107 -5.28867,6.059097 -5.33578,10.207976 -0.0387,3.411103 0.30178,12.395304 5.36934,12.459304 3.76533,0.04778 4.326,-4.803989 6.06822,-7.14065 1.23955,-1.66244 2.83555,-2.131995 4.80022,-2.618216 3.37667,-0.835776 5.678,-3.500658 5.67311,-7.03065 z"
         fill="#ffffff"
         id="path1-68"
         inkscape:label="logo.patreon"
         style="display:inline;stroke-width:0.0222222" /></g><text
       xml:space="preserve"
       style="font-style:normal;font-variant:normal;font-weight:bold;font-stretch:normal;font-size:30px;line-height:1.25;font-family:'Hanken Grotesk';-inkscape-font-specification:'Hanken Grotesk Bold';font-variant-ligatures:none;text-align:start;text-anchor:start;fill:#191419;fill-opacity:1"
       x="109.88"
       y="32.680004"
       id="text38"
       inkscape:label="text.patreon"><tspan
         sodipodi:role="line"
         id="tspan38"
         x="109.88"
         y="32.680004"
         style="font-style:normal;font-variant:normal;font-weight:bold;font-stretch:normal;font-size:30px;font-family:'Hanken Grotesk';-inkscape-font-specification:'Hanken Grotesk Bold';text-align:start;text-anchor:start;fill:#191419;fill-opacity:1">JotabeMusique</tspan></text></g><g
     inkscape:groupmode="layer"
     id="g42"
     inkscape:label="Bluesky"
     style="display:none"><path
       style="display:inline;fill:#1185fe;fill-opacity:1;stroke:none;stroke-width:1px;stroke-linecap:butt;stroke-linejoin:miter;stroke-opacity:1"
       d="M 5.6,0 0,15 h 40.000004 c -2.8,15 10.1,30 31.4,30 H 102.25977 V 0 Z"
       id="path39"
       inkscape:label="tile-left.bluesky"
       sodipodi:nodetypes="cccsccc" /><path
       id="path40"
       style="display:inline;fill:#edd2a6;fill-opacity:1;stroke:none;stroke-width:1px;stroke-linecap:butt;stroke-linejoin:miter;stroke-opacity:1"
       inkscape:label="tile-right"
       d="M 102.25977,-4.82422e-7 85.375001,45 l 277.740229,3.1e-5 h 51.28516 l 5.59961,-15 h -8.59961 C 390.00047,30.000031 377.20012,14.999978 380,3.0517578e-5 Z"
       sodipodi:nodetypes="cccccscc" /><g
       id="g41"
       inkscape:label="logo.bluesky"
       transform="translate(-178.11523,3.118211e-5)"><rect
         style="display:inline;fill:#000000;fill-opacity:0;stroke-width:1.00416;stroke-linecap:round;stroke-linejoin:round"
         id="rect40"
         width="45.374989"
         height="45.000027"
         x="226.11523"
         y="-2.6948606e-05"
         inkscape:label="logo-square"
         ry="0" /><path
         d="m 242.00503,13.356549 c 2.75155,2.06569 5.71099,6.254239 6.7977,8.501789 1.08672,-2.24755 4.04616,-6.436099 6.79771,-8.501789 1.98536,-1.490536 5.20229,-2.643803 5.20229,1.026 0,0.732929 -0.42021,6.156887 -0.66667,7.037535 -0.85669,3.061394 -3.97838,3.842239 -6.75528,3.369634 4.85387,0.826098 6.0886,3.562437 3.42194,6.298774 -5.06451,5.196846 -7.2791,-1.303901 -7.84656,-2.969619 -0.10403,-0.305366 -0.15271,-0.448225 -0.15343,-0.326747 -7.5e-4,-0.121478 -0.0494,0.02138 -0.15342,0.326747 -0.56746,1.665718 -2.78205,8.166465 -7.84656,2.969619 -2.66666,-2.736337 -1.43193,-5.472676 3.42194,-6.298774 -2.7769,0.472605 -5.89859,-0.30824 -6.75528,-3.369634 -0.24646,-0.880648 -0.66668,-6.304606 -0.66668,-7.037535 0,-3.669803 3.21693,-2.516536 5.2023,-1.026 z"
         fill="#ffffff"
         id="path1-1"
         style="display:inline;stroke-width:0.09375"
         inkscape:label="logo.bluesky" /></g><text
       xml:space="preserve"
       style="font-style:normal;font-variant:normal;font-weight:bold;font-stretch:normal;font-size:30px;line-height:1.25;font-family:'Hanken Grotesk';-inkscape-font-specification:'Hanken Grotesk Bold';font-variant-ligatures:none;text-align:start;text-anchor:start;fill:#191419;fill-opacity:1"
       x="109.88"
       y="32.680004"
       id="text41"
       inkscape:label="text.bluesky"><tspan
         sodipodi:role="line"
         id="tspan41"
         x="109.88"
         y="32.680004"
         style="font-style:normal;font-variant:normal;font-weight:bold;font-stretch:normal;font-size:30px;font-family:'Hanken Grotesk';-inkscape-font-specification:'Hanken Grotesk Bold';text-align:start;text-anchor:start;fill:#191419;fill-opacity:1">@jotabemusique</tspan></text></g><g
     inkscape:groupmode="layer"
     id="g45"
     inkscape:label="PayPal"
     style="display:none"><path
       style="display:inline;fill:#0551b5;fill-opacity:1;stroke:none;stroke-width:1px;stroke-linecap:butt;stroke-linejoin:miter;stroke-opacity:1"
       d="M 5.6,0 0,15 h 40.000004 c -2.8,15 10.1,30 31.4,30 H 102.25977 V 0 Z"
       id="path42"
       inkscape:label="tile-left.paypal"
       sodipodi:nodetypes="cccsccc" /><path
       id="path43"
       style="display:inline;fill:#edd2a6;fill-opacity:1;stroke:none;stroke-width:1px;stroke-linecap:butt;stroke-linejoin:miter;stroke-opacity:1"
       inkscape:label="tile-right"
       d="M 102.25977,-4.82422e-7 85.375001,45 l 277.740229,3.1e-5 h 51.28516 l 5.59961,-15 h -8.59961 C 390.00047,30.000031 377.20012,14.999978 380,3.0517578e-5 Z"
       sodipodi:nodetypes="cccccscc" /><g
       id="g44"
       inkscape:label="logo.paypal"
       transform="translate(-178.11523,3.118211e-5)"><rect
         style="display:inline;fill:#000000;fill-opacity:0;stroke-width:1.00416;stroke-linecap:round;stroke-linejoin:round"
         id="rect43"
         width="45.374989"
         height="45.000027"
         x="226.11523"
         y="-2.6948606e-05"
         inkscape:label="logo-square"
         ry="0" /><path
         d="m 258.81346,21.913986 c -0.871,4.416 -3.815,5.948 -7.569,5.948 h -0.57 c -0.481,0 -0.871,0.33 -0.931,0.781 l -0.06,0.24 -0.721,4.626 -0.03,0.21 c -0.091,0.451 -0.482,0.781 -0.932,0.781 h -3.965 c -0.33,-0.03 -0.54,-0.33 -0.48,-0.631 l 0.3,-2.042 h -4.686 c -0.36,-0.03 -0.601,-0.36 -0.54,-0.721 l 3.123,-19.705 c 0.09,-0.511 0.54,-0.901 1.051,-0.901 h 7.449 c 2.583,0 4.596,0.54 5.677,1.802 1.021,1.171 1.321,2.433 1.021,4.295 -0.24,-0.12 -0.511,-0.24 -0.811,-0.33 -0.39,-0.12 -0.781,-0.21 -1.171,-0.27 -0.57,-0.09 -1.231,-0.15 -1.922,-0.15 h -5.827 c -0.481,0 -0.871,0.33 -0.931,0.781 l -1.261,7.87 -0.04,0.248 c 0.097,-0.504 0.526,-0.908 1.061,-0.908 h 2.193 c 4.296,0 7.66,-1.742 8.621,-6.789 0.03,-0.15 0.06,-0.3 0.09,-0.45 0.42,0.21 0.781,0.481 1.081,0.841 0.96,1.08 1.14,2.642 0.78,4.474 z"
         fill="#ffffff"
         id="path1-79"
         inkscape:label="logo.paypal"
         style="display:inline" /></g><text
       xml:space="preserve"
       style="font-style:normal;font-variant:normal;font-weight:bold;font-stretch:normal;font-size:22px;line-height:1.25;font-family:'Hanken Grotesk';-inkscape-font-specification:'Hanken Grotesk Bold';font-variant-ligatures:none;text-align:start;text-anchor:start;fill:#191419;fill-opacity:1"
       x="109.88"
       y="28.680004"
       id="text44"
       inkscape:label="text.paypal"><tspan
         sodipodi:role="line"
         id="tspan44"
         x="109.88"
         y="28.680004"
         style="font-style:normal;font-variant:normal;font-weight:bold;font-stretch:normal;font-size:22px;font-family:'Hanken Grotesk';-inkscape-font-specification:'Hanken Grotesk Bold';text-align:start;text-anchor:start;fill:#191419;fill-opacity:1">paypal.me/JotabeMusique</tspan></text></g><g
     inkscape:groupmode="layer"
     id="g49"
     inkscape:label="TikTok"
     style="display:none"><path
       style="display:inline;fill:url(#linearGradient50);stroke:none;stroke-width:1px;stroke-linecap:butt;stroke-linejoin:miter;stroke-opacity:1"
       d="M 5.6,0 0,15 h 40.000004 c -2.8,15 10.1,30 31.4,30 H 102.25977 V 0 Z"
       id="path46"
       inkscape:label="tile-left.tiktok"
       sodipodi:nodetypes="cccsccc" /><path
       id="path47"
       style="display:inline;fill:#edd2a6;fill-opacity:1;stroke:none;stroke-width:1px;stroke-linecap:butt;stroke-linejoin:miter;stroke-opacity:1"
       inkscape:label="tile-right"
       d="M 102.25977,-4.82422e-7 85.375001,45 l 277.740229,3.1e-5 h 51.28516 l 5.59961,-15 h -8.59961 C 390.00047,30.000031 377.20012,14.999978 380,3.0517578e-5 Z"
       sodipodi:nodetypes="cccccscc" /><g
       id="g48"
       inkscape:label="logo.tiktok"
       transform="translate(-178.11523,3.118211e-5)"><rect
         style="display:inline;fill:#000000;fill-opacity:0;stroke-width:1.00416;stroke-linecap:round;stroke-linejoin:round"
         id="rect47"
         width="45.374989"
         height="45.000027"
         x="226.11523"
         y="-2.6948606e-05"
         inkscape:label="logo-square"
         ry="0" /><path
         d="m 259.26673,20.366486 c -2.139,0 -4.122,-0.684 -5.74,-1.846 v 8.385 c 0,4.188 -3.407,7.594 -7.594,7.594 -1.618,0 -3.119,-0.51 -4.352,-1.376 -1.958,-1.375 -3.242,-3.649 -3.242,-6.218 0,-4.188 3.407,-7.595 7.595,-7.595 0.348,0 0.688,0.029 1.023,0.074 v 0.977 3.235 c -0.324,-0.101 -0.666,-0.16 -1.023,-0.16 -1.912,0 -3.468,1.556 -3.468,3.469 0,1.332 0.756,2.489 1.86,3.07 0.481,0.253 1.028,0.398 1.609,0.398 1.868,0 3.392,-1.486 3.462,-3.338 l 0.003,-16.535 h 4.126 c 0,0.358 0.035,0.707 0.097,1.047 0.291,1.572 1.224,2.921 2.517,3.764 0.9,0.587 1.974,0.93 3.126,0.93 v 4.125 z"
         fill="#ffffff"
         id="path1-12"
         inkscape:label="logo.tiktok"
         style="display:inline" /></g><text
       xml:space="preserve"
       style="font-style:normal;font-variant:normal;font-weight:bold;font-stretch:normal;font-size:30px;line-height:1.25;font-family:'Hanken Grotesk';-inkscape-font-specification:'Hanken Grotesk Bold';font-variant-ligatures:none;text-align:start;text-anchor:start;fill:#191419;fill-opacity:1"
       x="109.88"
       y="32.680004"
       id="text48"
       inkscape:label="text.tiktok"><tspan
         sodipodi:role="line"
         id="tspan48"
         x="109.88"
         y="32.680004"
         style="font-style:normal;font-variant:normal;font-weight:bold;font-stretch:normal;font-size:30px;font-family:'Hanken Grotesk';-inkscape-font-specification:'Hanken Grotesk Bold';text-align:start;text-anchor:start;fill:#191419;fill-opacity:1">@jotabemusique</tspan></text></g><g
     inkscape:groupmode="layer"
     id="g53"
     inkscape:label="Tipeee"
     style="display:none"><path
       style="display:inline;fill:#d64758;fill-opacity:1;stroke:none;stroke-width:1px;stroke-linecap:butt;stroke-linejoin:miter;stroke-opacity:1"
       d="M 5.6,0 0,15 h 40.000004 c -2.8,15 10.1,30 31.4,30 H 102.25977 V 0 Z"
       id="path50"
       inkscape:label="tile-left.tipeee"
       sodipodi:nodetypes="cccsccc" /><path
       id="path51"
       style="display:inline;fill:#edd2a6;fill-opacity:1;stroke:none;stroke-width:1px;stroke-linecap:butt;stroke-linejoin:miter;stroke-opacity:1"
       inkscape:label="tile-right"
       d="M 102.25977,-4.82422e-7 85.375001,45 l 277.740229,3.1e-5 h 51.28516 l 5.59961,-15 h -8.59961 C 390.00047,30.000031 377.20012,14.999978 380,3.0517578e-5 Z"
       sodipodi:nodetypes="cccccscc" /><g
       id="g52"
       inkscape:label="logo.tipeee"
       transform="translate(-178.11523,3.118211e-5)"><rect
         style="display:inline;fill:#000000;fill-opacity:0;stroke-width:1.00416;stroke-linecap:round;stroke-linejoin:round"
         id="rect51"
         width="45.374989"
         height="45.000027"
         x="226.11523"
         y="-2.6948606e-05"
         inkscape:label="logo-square"
         ry="0" /><path
         d="m 233.2304,18.019134 h 1.05106 v -1.797873 l 3.62341,-1.161703 v 2.959576 h 1.8532 v 2.558511 h -1.8532 v 3.498939 q 0,0.248936 -0.0138,0.525532 0,0.276596 0.0414,0.511702 0.0553,0.235107 0.17978,0.387234 0.13831,0.138298 0.42873,0.138298 0.19361,0 0.56702,-0.09681 0.38724,-0.124468 0.66383,-0.235106 v 2.517022 q -0.22128,0.09681 -0.55319,0.152128 -0.33192,0.08298 -0.69149,0.124468 -0.35957,0.04149 -0.66383,0.05532 -0.29043,0.04149 -0.47022,0.04149 -1.10637,0 -1.72872,-0.290426 -0.60851,-0.304256 -0.91277,-0.829788 -0.29042,-0.539361 -0.3734,-1.3 -0.0691,-0.760639 -0.0968,-1.701064 v -3.498938 h -1.05107 z m 12.82022,9.819153 h -5.50426 v -2.572342 h 0.82979 v -4.6883 h -0.82979 v -2.558511 h 4.55 v 7.246811 h 0.95426 z m -4.95106,-12.68192 q 0,-0.331915 0.13829,-0.69149 0.1383,-0.359575 0.38723,-0.65 0.2766,-0.290426 0.66383,-0.470213 0.4149,-0.193617 0.9266,-0.193617 0.5117,0 0.89893,0.193617 0.4149,0.179787 0.6915,0.470213 0.27659,0.290425 0.41489,0.65 0.15213,0.359575 0.15213,0.69149 0,0.829787 -0.5532,1.410639 -0.55319,0.567021 -1.60425,0.567021 -0.47021,0 -0.85744,-0.179787 -0.37341,-0.165958 -0.67767,-0.442554 -0.26276,-0.290425 -0.42872,-0.65 -0.15212,-0.345744 -0.15212,-0.705319 z m 13.53936,7.896812 q 0,-0.428724 -0.0968,-0.857447 -0.0968,-0.456383 -0.29043,-0.788299 -0.17978,-0.331915 -0.45638,-0.553192 -0.24894,-0.221276 -0.56702,-0.221276 -0.29043,0 -0.56702,0.179787 -0.24894,0.179788 -0.45639,0.511702 -0.19361,0.318086 -0.31808,0.788299 -0.0968,0.456383 -0.0553,1.037234 0,0.511702 0.12446,0.940426 0.12448,0.414894 0.31809,0.746809 0.19362,0.318085 0.45638,0.484042 0.24894,0.179788 0.52554,0.179788 0.62234,0 0.99574,-0.66383 0.38723,-0.66383 0.38723,-1.784043 z m -7.62022,6.223407 h 0.82979 v -8.643621 h -0.82979 v -2.613831 h 4.49468 l 0.33192,0.69149 q 0.1383,-0.09681 0.35957,-0.235106 0.23511,-0.152128 0.52554,-0.276596 0.29042,-0.138299 0.66382,-0.235107 0.37342,-0.09681 0.8298,-0.09681 1.13404,0 2.00531,0.414894 0.88511,0.414894 1.45214,1.120214 0.59467,0.705319 0.88511,1.645745 0.29042,0.926596 0.29042,1.96383 0,1.175533 -0.35958,2.115959 -0.33191,0.926596 -0.94043,1.576596 -0.59467,0.65 -1.41064,0.995745 -0.82978,0.359575 -1.7702,0.359575 -0.60851,0 -1.07873,-0.09681 -0.45639,-0.09681 -0.76064,-0.235107 -0.29042,-0.138297 -0.47021,-0.248936 -0.17979,-0.138297 -0.23511,-0.179787 v 1.977661 h 1.0649 v 2.572341 h -5.86384 z m 12.58511,-3.429789 q 0,-0.373405 0.13831,-0.746809 0.15212,-0.373404 0.45638,-0.66383 0.29042,-0.290425 0.70532,-0.470213 0.41489,-0.193617 0.94042,-0.193617 0.52553,0 0.94043,0.179787 0.42872,0.152128 0.7468,0.456383 0.31809,0.276596 0.47022,0.663831 0.17978,0.373404 0.17978,0.788298 0,0.829787 -0.62233,1.438298 -0.62234,0.594681 -1.7149,0.594681 -0.47021,0 -0.88511,-0.179787 -0.40106,-0.207447 -0.71915,-0.484043 -0.30425,-0.276596 -0.47021,-0.62234 -0.16596,-0.373405 -0.16596,-0.774469 z m 0.083,-7.99362 v -3.734045 h 4.68831 v 3.734045 l -1.03724,4.951065 h -2.58617 z"
         fill="#ffffff"
         id="path1-8"
         style="display:inline;stroke-width:1.38298"
         inkscape:label="logo.tipeee" /></g><text
       xml:space="preserve"
       style="font-style:normal;font-variant:normal;font-weight:bold;font-stretch:normal;font-size:30px;line-height:1.25;font-family:'Hanken Grotesk';-inkscape-font-specification:'Hanken Grotesk Bold';font-variant-ligatures:none;text-align:start;text-anchor:start;fill:#191419;fill-opacity:1"
       x="109.88"
       y="32.680004"
       id="text52"
       inkscape:label="text.tipeee"><tspan
         sodipodi:role="line"
         id="tspan52"
         x="109.88"
         y="32.680004"
         style="font-style:normal;font-variant:normal;font-weight:bold;font-stretch:normal;font-size:30px;font-family:'Hanken Grotesk';-inkscape-font-specification:'Hanken Grotesk Bold';text-align:start;text-anchor:start;fill:#191419;fill-opacity:1">jotabemusique</tspan></text></g><g
     inkscape:groupmode="layer"
     id="g56"
     inkscape:label="Twitch"
     style="display:none"><path
       style="display:inline;fill:#9146ff;fill-opacity:1;stroke:none;stroke-width:1px;stroke-linecap:butt;stroke-linejoin:miter;stroke-opacity:1"
       d="M 5.6,0 0,15 h 40.000004 c -2.8,15 10.1,30 31.4,30 H 102.25977 V 0 Z"
       id="path53"
       inkscape:label="tile-left.twitch"
       sodipodi:nodetypes="cccsccc" /><path
       id="path54"
       style="display:inline;fill:#edd2a6;fill-opacity:1;stroke:none;stroke-width:1px;stroke-linecap:butt;stroke-linejoin:miter;stroke-opacity:1"
       inkscape:label="tile-right"
       d="M 102.25977,-4.82422e-7 85.375001,45 l 277.740229,3.1e-5 h 51.28516 l 5.59961,-15 h -8.59961 C 390.00047,30.000031 377.20012,14.999978 380,3.0517578e-5 Z"
       sodipodi:nodetypes="cccccscc" /><g
       id="g55"
       inkscape:label="logo.twitch"
       transform="translate(-178.11523,3.118211e-5)"><rect
         style="display:inline;fill:#000000;fill-opacity:0;stroke-width:1.00416;stroke-linecap:round;stroke-linejoin:round"
         id="rect54"
         width="45.374989"
         height="45.000027"
         x="226.11523"
         y="-2.6948606e-05"
         inkscape:label="logo-square"
         ry="0" /><path
         id="path1-82"
         d="m 242.80175,12.642547 -4.28515,4.287109 v 15.427735 h 5.14257 v 4.285156 l 4.28516,-4.285156 h 3.42969 l 7.71484,-7.714844 v -12 z m 0.85742,1.714844 h 13.7129 v 9.427734 l -3.42774,3.429688 h -3.42969 l -3,3 v -3 h -3.85547 z m 4.7129,3 v 5.142578 h 1.71484 v -5.142578 z m 4.71679,0 v 5.142578 h 1.71289 v -5.142578 z"
         style="display:inline;fill:#ffffff"
         inkscape:label="logo.twitch" /></g><text
       xml:space="preserve"
       style="font-style:normal;font-variant:normal;font-weight:bold;font-stretch:normal;font-size:30px;line-height:1.25;font-family:'Hanken Grotesk';-inkscape-font-specification:'Hanken Grotesk Bold';font-variant-ligatures:none;text-align:start;text-anchor:start;fill:#191419;fill-opacity:1"
       x="109.88"
       y="32.680004"
       id="text55"
       inkscape:label="text.twitch"><tspan
         sodipodi:role="line"
         id="tspan55"
         x="109.88"
         y="32.680004"
         style="font-style:normal;font-variant:normal;font-weight:bold;font-stretch:normal;font-size:30px;font-family:'Hanken Grotesk';-inkscape-font-specification:'Hanken Grotesk Bold';text-align:start;text-anchor:start;fill:#191419;fill-opacity:1">/jotabemusique</tspan></text></g><g
     inkscape:groupmode="layer"
     id="g59"
     inkscape:label="Website"
     style="display:inline"><path
       style="display:inline;fill:#370f39;fill-opacity:1;stroke:none;stroke-width:1px;stroke-linecap:butt;stroke-linejoin:miter;stroke-opacity:1"
       d="M 5.6,0 0,15 h 40.000004 c -2.8,15 10.1,30 31.4,30 H 102.25977 V 0 Z"
       id="path56"
       inkscape:label="tile-left.website"
       sodipodi:nodetypes="cccsccc" /><path
       id="path57"
       style="display:inline;fill:#edd2a6;fill-opacity:1;stroke:none;stroke-width:1px;stroke-linecap:butt;stroke-linejoin:miter;stroke-opacity:1"
       inkscape:label="tile-right"
       d="M 102.25977,-4.82422e-7 85.375001,45 l 277.740229,3.1e-5 h 51.28516 l 5.59961,-15 h -8.59961 C 390.00047,30.000031 377.20012,14.999978 380,3.0517578e-5 Z"
       sodipodi:nodetypes="cccccscc" /><g
       id="g58"
       inkscape:label="logo.website"
       transform="translate(-178.11523,3.118211e-5)"><rect
         style="display:inline;fill:#000000;fill-opacity:0;stroke-width:1.00416;stroke-linecap:round;stroke-linejoin:round"
         id="rect57"
         width="45.374989"
         height="45.000027"
         x="226.11523"
         y="-2.6948606e-05"
         inkscape:label="logo-square"
         ry="0" /><path
         d="m 244.80273,10.499969 c -3.5875,0 -6.5,2.8375 -6.5,6.5875 0.006,2.975 1.7125,3.9125 3,3.9125 1.38125,0 2.5,-1.11875 2.5,-2.5 0,-1.38125 -1.11875,-2.5 -2.5,-2.5 -0.81875,0 -1.54375,0.39375 -2,1 0,-3.6625 3.25,-5.1 6,-4.85 v 21.35 c -1,0 -4,-1 -4,-6 v -2.0625 l -3,1.125 v 2.4375 c 0,3.2625 2.2375,5.5 5,5.5 h 5 v -23 c -1.00625,-0.6375 -2.225,-1 -3.5,-1 z m 4.5,1.8125 v 22.1875 h 5 c 2.7625,0 5,-2.2375 5,-5.5 0,-3.31875 -1.9625,-5.4 -4.81875,-5.4 1.36875,-1.51875 1.025,-3.4875 -0.5,-5.04375 -1.68125,-1.7125 -2.4625,-2.875 -3.175,-4.2 -0.71875,-1.325 -1.50625,-2.04375 -1.50625,-2.04375 z m 3,6.6875 c 0.96875,0.80625 2,1.6625 2,2.875 0,0.98125 -0.28125,1.6625 -1.25,2.025 l -0.75,0.28125 z m 2.1375,5.56875 c 0.96875,0 1.8625,0.54375 1.8625,2.9375 0,4.99375 -3,5.99375 -4,5.99375 v -8.31875 c 0.75,-0.28125 1.55,-0.6125 2.1375,-0.6125 z"
         fill="#ffffff"
         stroke="none"
         id="path1-11"
         style="display:inline;stroke-width:0.0625"
         inkscape:label="logo.jotabe" /></g><text
       xml:space="preserve"
       style="font-style:normal;font-variant:normal;font-weight:bold;font-stretch:normal;font-size:30px;line-height:1.25;font-family:'Hanken Grotesk';-inkscape-font-specification:'Hanken Grotesk Bold';font-variant-ligatures:none;text-align:start;text-anchor:start;fill:#191419;fill-opacity:1"
       x="109.88"
       y="32.680004"
       id="text58"
       inkscape:label="text.website"><tspan
         sodipodi:role="line"
         id="tspan58"
         x="109.88"
         y="32.680004"
         style="font-style:normal;font-variant:normal;font-weight:bold;font-stretch:normal;font-size:30px;font-family:'Hanken Grotesk';-inkscape-font-specification:'Hanken Grotesk Bold';text-align:start;text-anchor:start;fill:#191419;fill-opacity:1">jotabemusique.fr</tspan></text></g></svg>
