<?xml version="1.0" encoding="UTF-8" standalone="no"?>
<!-- Created with Inkscape (http://www.inkscape.org/) -->

<svg
   width="320"
   height="45"
   viewBox="0 0 320.00001 45"
   version="1.1"
   id="svg1"
   inkscape:version="1.4.2 (f4327f4, 2025-05-13)"
   sodipodi:docname="social-panels.svg"
   xml:space="preserve"
   xmlns:inkscape="http://www.inkscape.org/namespaces/inkscape"
   xmlns:sodipodi="http://sodipodi.sourceforge.net/DTD/sodipodi-0.dtd"
   xmlns:xlink="http://www.w3.org/1999/xlink"
   xmlns="http://www.w3.org/2000/svg"
   xmlns:svg="http://www.w3.org/2000/svg"><sodipodi:namedview
     id="namedview1"
     pagecolor="#505050"
     bordercolor="#eeeeee"
     borderopacity="1"
     inkscape:showpageshadow="0"
     inkscape:pageopacity="0"
     inkscape:pagecheckerboard="0"
     inkscape:deskcolor="#505050"
     inkscape:document-units="px"
     inkscape:zoom="2.8284271"
     inkscape:cx="-31.996582"
     inkscape:cy="-28.284271"
     inkscape:window-width="3840"
     inkscape:window-height="2131"
     inkscape:window-x="2551"
     inkscape:window-y="-9"
     inkscape:window-maximized="1"
     inkscape:current-layer="g14"
     showguides="true"><sodipodi:guide
       position="280,45.000001"
       orientation="0.93626448,-0.35129592"
       id="guide2"
       inkscape:locked="false"
       inkscape:label=""
       inkscape:color="rgb(0,134,229)" /><sodipodi:guide
       position="235.00003,45.000001"
       orientation="0.93626448,-0.35129592"
       id="guide4"
       inkscape:label=""
       inkscape:locked="false"
       inkscape:color="rgb(0,134,229)" /><sodipodi:guide
       position="235.00004,45"
       orientation="1,0"
       id="guide5"
       inkscape:locked="false" /><sodipodi:guide
       position="280,45"
       orientation="1,0"
       id="guide6"
       inkscape:locked="false" /></sodipodi:namedview><defs
     id="defs1"><linearGradient
       id="linearGradient10"
       inkscape:collect="always"><stop
         style="stop-color:#f9ce34;stop-opacity:1;"
         offset="0"
         id="stop10" /><stop
         style="stop-color:#ee2a7b;stop-opacity:1;"
         offset="0.5"
         id="stop12" /><stop
         style="stop-color:#6228d7;stop-opacity:1;"
         offset="1"
         id="stop11" /></linearGradient><rect
       x="66.114484"
       y="0"
       width="168.88555"
       height="45"
       id="rect6" /><linearGradient
       inkscape:collect="always"
       xlink:href="#linearGradient10"
       id="linearGradient11"
       x1="235.00003"
       y1="45"
       x2="280"
       y2="0"
       gradientUnits="userSpaceOnUse" /></defs><g
     inkscape:groupmode="layer"
     id="layer2"
     inkscape:label="Youtube"
     style="display:none"><path
       style="display:inline;fill:#edd2a6;fill-opacity:1;stroke:none;stroke-width:1px;stroke-linecap:butt;stroke-linejoin:miter;stroke-opacity:1"
       d="M 5.6,0 0,15 H 35.3 C 32.5,30 45.4,45 66.7,45 H 235.00004 V 0 Z"
       id="path2"
       inkscape:label="tile-left"
       sodipodi:nodetypes="cccsccc" /><path
       id="path3"
       style="display:inline;fill:#ee0f0f;fill-opacity:1;stroke:none;stroke-width:1px;stroke-linecap:butt;stroke-linejoin:miter;stroke-opacity:1"
       inkscape:label="tile-right.discord"
       d="m 235,0 -16.88477,45 h 45 51.28516 L 320,30 h -8.59961 C 290.00047,30 277.20012,14.999947 280,0 Z" /><path
       d="m 268.55562,16.686 c -0.276,-1.039 -1.089,-1.858 -2.122,-2.136 -1.871,-0.504 -9.376,-0.504 -9.376,-0.504 0,0 -7.505,0 -9.377,0.504 -1.03201,0.278 -1.845,1.096 -2.12101,2.136 -0.502,1.884 -0.502,5.814 -0.502,5.814 0,0 0,3.93 0.502,5.814 0.27601,1.039 1.089,1.858 2.12201,2.136 1.871,0.504 9.376,0.504 9.376,0.504 0,0 7.505,0 9.37699,-0.504 1.032,-0.278 1.84501,-1.096 2.12201,-2.136 0.50099,-1.884 0.50099,-5.814 0.50099,-5.814 0,0 0,-3.93 -0.50199,-5.814 z m -13.952,9.383 v -7.138 l 6.272,3.569 z"
       fill="#ffffff"
       id="path1-7"
       inkscape:label="logo.youtube" /><text
       xml:space="preserve"
       style="font-style:normal;font-variant:normal;font-weight:bold;font-stretch:normal;font-size:30px;line-height:1.25;font-family:'Hanken Grotesk';-inkscape-font-specification:'Hanken Grotesk Bold';font-variant-ligatures:none;text-align:center;text-anchor:middle;fill:#191419;fill-opacity:1"
       x="135.52591"
       y="33.877541"
       id="text6"
       inkscape:label="text.youtube"><tspan
         sodipodi:role="line"
         id="tspan6"
         x="135.52591"
         y="33.877541"
         style="font-style:normal;font-variant:normal;font-weight:bold;font-stretch:normal;font-size:30px;font-family:'Hanken Grotesk';-inkscape-font-specification:'Hanken Grotesk Bold';text-align:center;text-anchor:middle;fill:#191419;fill-opacity:1">YouTube</tspan></text></g><g
     inkscape:groupmode="layer"
     id="g10"
     inkscape:label="Instagram"
     style="display:none"><path
       style="display:inline;fill:#edd2a6;fill-opacity:1;stroke:none;stroke-width:1px;stroke-linecap:butt;stroke-linejoin:miter;stroke-opacity:1"
       d="M 5.6,0 0,15 H 35.3 C 32.5,30 45.4,45 66.7,45 H 235.00004 V 0 Z"
       id="path8"
       inkscape:label="tile-left"
       sodipodi:nodetypes="cccsccc" /><path
       id="path9"
       style="display:inline;fill:url(#linearGradient11);stroke:none;stroke-width:1px;stroke-linecap:butt;stroke-linejoin:miter;stroke-opacity:1"
       inkscape:label="tile-right.instagram"
       d="m 235,0 -16.88477,45 h 45 51.28516 L 320,30 h -8.59961 C 290.00047,30 277.20012,14.999947 280,0 Z" /><path
       id="path1"
       d="M 11.999031,0 C 8.7400306,0 8.331765,0.01426563 7.051765,0.07226562 5.196765,0.15726563 3.3556556,0.67267187 2.0146556,2.0136719 0.66865562,3.3596719 0.15629625,5.1987344 0.07129625,7.0527344 0.01329625,8.3327344 -9.69375e-4,8.741 -9.69375e-4,12 c 0,3.259 0.014265625,3.667266 0.072265625,4.947266 0.085,1.853 0.60435937,3.701062 1.94335935,5.039062 1.345,1.345 3.1851094,1.856406 5.0371094,1.941406 1.28,0.058 1.6882656,0.07227 4.947266,0.07227 3.259,0 3.669218,-0.01427 4.949218,-0.07227 1.854,-0.085 3.69711,-0.601406 5.03711,-1.941406 1.347,-1.347 1.858359,-3.185062 1.943359,-5.039062 0.058,-1.28 0.07031,-1.688266 0.07031,-4.947266 0,-3.259 -0.01231,-3.6672656 -0.07031,-4.9472656 -0.085,-1.855 -0.603359,-3.6990625 -1.943359,-5.0390625 -1.343,-1.34300002 -3.18811,-1.85740627 -5.03711,-1.94140628 C 15.668249,0.01426563 15.258031,0 11.999031,0 Z m 0,2.1621094 c 3.204,0 3.584609,0.012313 4.849609,0.070312 1.308,0.06 2.654422,0.3575469 3.607422,1.3105469 0.962,0.9619999 1.2525,2.2954218 1.3125,3.6074218 0.058,1.265 0.07031,1.6456094 0.07031,4.8496099 0,3.204 -0.01231,3.584609 -0.07031,4.849609 -0.059,1.300999 -0.3655,2.660422 -1.3125,3.607422 -0.962,0.962 -2.294422,1.250547 -3.607422,1.310547 -1.265,0.058 -1.645609,0.07031 -4.849609,0.07031 -3.2040004,0 -3.5826566,-0.01231 -4.8476566,-0.07031 -1.291,-0.059 -2.6684219,-0.370547 -3.6074219,-1.310547 -0.957,-0.957001 -1.2525,-2.303423 -1.3125,-3.607422 C 2.1734525,15.584609 2.16114,15.204 2.16114,12 c 0,-3.204 0.012312,-3.5846094 0.070312,-4.8496094 0.059,-1.296 0.3685,-2.6634218 1.3125,-3.6074218 0.96,-0.96 2.2984219,-1.2505469 3.6074219,-1.3105469 1.265,-0.058 1.6436562,-0.070312 4.8476571,-0.070312 z m 6.40625,1.9921875 A 1.4400001,1.4400001 0 0 0 16.965827,5.59375 1.4400001,1.4400001 0 0 0 18.405281,7.0332031 1.4400001,1.4400001 0 0 0 19.846687,5.59375 1.4400001,1.4400001 0 0 0 18.405281,4.1542969 Z m -6.40625,1.6835937 C 8.5960306,5.8378906 5.8388744,8.597 5.8388744,12 c 0,3.403 2.7571562,6.162109 6.1601566,6.162109 3.403,0 6.162109,-2.759109 6.162109,-6.162109 0,-3.403 -2.759109,-6.1621094 -6.162109,-6.1621094 z m 0,2.1621094 c 2.209,0 4,1.791 4,4 0,2.209 -1.791,4 -4,4 -2.2090004,0 -4.0000004,-1.791 -4.0000004,-4 0,-2.209 1.791,-4 4.0000004,-4 z"
       style="display:inline;fill:#ffffff"
       transform="translate(245.05761,10.5)"
       inkscape:label="logo.instagram" /><text
       xml:space="preserve"
       style="font-style:normal;font-variant:normal;font-weight:bold;font-stretch:normal;font-size:30px;line-height:1.25;font-family:'Hanken Grotesk';-inkscape-font-specification:'Hanken Grotesk Bold';font-variant-ligatures:none;text-align:center;text-anchor:middle;fill:#191419;fill-opacity:1"
       x="135.52591"
       y="33.877541"
       id="text10"
       inkscape:label="text.instagram"><tspan
         sodipodi:role="line"
         id="tspan10"
         x="135.52591"
         y="33.877541"
         style="font-style:normal;font-variant:normal;font-weight:bold;font-stretch:normal;font-size:30px;font-family:'Hanken Grotesk';-inkscape-font-specification:'Hanken Grotesk Bold';text-align:center;text-anchor:middle;fill:#191419;fill-opacity:1">Instagram</tspan></text></g><g
     inkscape:groupmode="layer"
     id="g14"
     inkscape:label="Discord"
     style="display:inline"><path
       style="display:inline;fill:#edd2a6;fill-opacity:1;stroke:none;stroke-width:1px;stroke-linecap:butt;stroke-linejoin:miter;stroke-opacity:1"
       d="M 5.6,0 0,15 H 35.3 C 32.5,30 45.4,45 66.7,45 H 235.00004 V 0 Z"
       id="path12"
       inkscape:label="tile-left"
       sodipodi:nodetypes="cccsccc" /><path
       id="path13"
       style="display:inline;fill:#5865f2;fill-opacity:1;stroke:none;stroke-width:1px;stroke-linecap:butt;stroke-linejoin:miter;stroke-opacity:1"
       inkscape:label="tile-right.discord"
       d="m 235,0 -16.88477,45 h 45 51.28516 L 320,30 h -8.59961 C 290.00047,30 277.20012,14.999947 280,0 Z" /><path
       d="m 265.37555,14.870113 c -1.53,-0.702 -3.17,-1.219 -4.885,-1.515 -0.031,-0.006 -0.062,0.009 -0.079,0.037 -0.211,0.375 -0.445,0.865 -0.608,1.249 -1.845,-0.276 -3.68,-0.276 -5.487,0 -0.163,-0.393 -0.406,-0.874 -0.617,-1.249 -0.017,-0.028 -0.048,-0.042 -0.079,-0.037 -1.714,0.295 -3.354,0.812 -4.885,1.515 -0.013,0.005 -0.025,0.015 -0.032,0.027 -3.111,4.648 -3.964,9.182 -3.546,13.66 0.002,0.022 0.014,0.043 0.031,0.056 2.053,1.508 4.041,2.423 5.993,3.029 0.031,0.01 0.064,-0.002 0.084,-0.028 0.462,-0.63 0.873,-1.295 1.226,-1.994 0.021,-0.041 0.001,-0.09 -0.042,-0.106 -0.653,-0.248 -1.274,-0.55 -1.872,-0.892 -0.047,-0.028 -0.051,-0.095 -0.008,-0.128 0.126,-0.094 0.252,-0.192 0.372,-0.291 0.022,-0.018 0.052,-0.022 0.078,-0.01 3.928,1.793 8.18,1.793 12.061,0 0.026,-0.012 0.056,-0.009 0.079,0.01 0.12,0.099 0.246,0.198 0.373,0.292 0.044,0.032 0.041,0.1 -0.007,0.128 -0.598,0.349 -1.219,0.645 -1.873,0.891 -0.043,0.016 -0.061,0.066 -0.041,0.107 0.36,0.698 0.772,1.363 1.225,1.993 0.019,0.027 0.053,0.038 0.084,0.029 1.961,-0.607 3.95,-1.522 6.002,-3.029 0.018,-0.013 0.029,-0.033 0.031,-0.055 0.5,-5.177 -0.838,-9.674 -3.548,-13.66 -0.005,-0.014 -0.017,-0.024 -0.03,-0.029 z m -12.297,10.961 c -1.183,0 -2.157,-1.086 -2.157,-2.419 0,-1.333 0.955,-2.419 2.157,-2.419 1.211,0 2.176,1.095 2.157,2.419 0,1.334 -0.956,2.419 -2.157,2.419 z m 7.975,0 c -1.182,0 -2.157,-1.086 -2.157,-2.419 0,-1.333 0.955,-2.419 2.157,-2.419 1.211,0 2.176,1.095 2.157,2.419 0,1.334 -0.946,2.419 -2.157,2.419 z"
       fill="#ffffff"
       id="path1-6"
       inkscape:label="logo.discord"
       style="display:inline" /><text
       xml:space="preserve"
       style="font-style:normal;font-variant:normal;font-weight:bold;font-stretch:normal;font-size:30px;line-height:1.25;font-family:'Hanken Grotesk';-inkscape-font-specification:'Hanken Grotesk Bold';font-variant-ligatures:none;text-align:center;text-anchor:middle;fill:#191419;fill-opacity:1"
       x="135.52591"
       y="33.877541"
       id="text14"
       inkscape:label="text.discord"><tspan
         sodipodi:role="line"
         id="tspan14"
         x="135.52591"
         y="33.877541"
         style="font-style:normal;font-variant:normal;font-weight:bold;font-stretch:normal;font-size:30px;font-family:'Hanken Grotesk';-inkscape-font-specification:'Hanken Grotesk Bold';text-align:center;text-anchor:middle;fill:#191419;fill-opacity:1">Discord</tspan></text></g></svg>
