<svg
   id="jb-logo-text"
   viewBox="0 0 480 480"
   xmlns="http://www.w3.org/2000/svg"
   xmlns:svg="http://www.w3.org/2000/svg">
  <defs
     id="defs">
    <mask
       maskUnits="userSpaceOnUse"
       id="JB-cut-mask">
      <path
         fill="#ffffff"
         d="M -72,-48 V 432 H 408 V -48 Z m 56,348 h 368 v 52 H -16 Z" />
    </mask>
  </defs>
  <g
      id="JB-cut-logo"
      transform="translate(72,48)">
    <path
      d="M 104,0 C 46.6,0 0,45.4 0,105.4 0.1,153 27.4,168 48,168 70.1,168 88,150.1 88,128 88,105.9 70.1,88 48,88 34.9,88 23.3,94.3 16,104 16,45.4 68,22.4 112,26.4 V 368 C 96,368 48,352 48,272 V 239 L 0,257 v 39 c 0,52.2 35.8,88 80,88 h 80 V 16 C 143.9,5.8 124.4,0 104,0 Z m 72,29 v 355 h 80 c 44.2,0 80,-35.8 80,-88 0,-53.1 -31.4,-86.4 -77.1,-86.4 21.9,-24.3 16.4,-55.8 -8,-80.7 C 224,101.5 211.5,82.9 200.1,61.7 188.6,40.5 176,29 176,29 Z m 48,107 c 15.5,12.9 32,26.6 32,46 0,15.7 -4.5,26.6 -20,32.4 l -12,4.5 z m 34.2,89.1 c 15.5,0 29.8,8.7 29.8,47 0,79.9 -48,95.9 -64,95.9 V 234.9 c 12,-4.5 24.8,-9.8 34.2,-9.8 z"
      mask="url(#JB-cut-mask)"
      fill="#000000"
      stroke="none"
    />
    <rect
      x="-16"
      y="296"
      width="368"
      height="4"
      id="JB-cut-line"
      fill="#000000"
      stroke="none"
    />
    <!-- <rect
      x="-16"
      y="300"
      width="368"
      height="52"
      fill="#ffffff"
      stroke="none"
      id="JB-cut-text-box" /> -->
    <text
      x="168"
      y="341"
      fill="#000000"
      stroke="none"
      letter-spacing="8px"
      style="
        font-weight: 500;
        font-size: 42px;
        line-height: 1;
        font-family: 'Hanken Grotesk';
        text-align:center;
        text-anchor:middle"
      xml:space="preserve"
      id="JB-cut-text">JOTABÊ</text>
  </g>

</svg>
