<svg id="jb-logo-frame" viewBox="0 0 480 480" xmlns="http://www.w3.org/2000/svg" xmlns:svg="http://www.w3.org/2000/svg">
  <path transform="translate(-56,16)"
    d="M 232,-0.14 C 157.19,-0.14 95.86,61.22 95.86,136.08 V 336 c 0,61.55 50.59,112.14 112.14,112.14 h 176 c 61.5,0 112.14,-50.53 112.14,-112.14 v -24 c 0,-39.91 -8.54,-71.63 -25.69,-98.02 -17.15,-26.39 -39.81,-46.8 -68.82,-75.81 -23.97,-23.97 -34.82,-40.36 -45.22,-59.7 a 32.14,32.14 0 0 0 -0.06,-0.11 C 339.03,46.45 299.08,0.1 232.12,-0.14 a 32.14,32.14 0 0 0 -0.12,0 z"
    fill="#000000" stroke="none" />
  <path transform="translate(72,48)"
    d="M 104,0 C 46.6,0 0,45.4 0,105.4 0.1,153 27.4,168 48,168 70.1,168 88,150.1 88,128 88,105.9 70.1,88 48,88 34.9,88 23.3,94.3 16,104 16,45.4 68,22.4 112,26.4 V 368 C 96,368 48,352 48,272 V 239 L 0,257 v 39 c 0,52.2 35.8,88 80,88 h 80 V 16 C 143.9,5.8 124.4,0 104,0 Z m 72,29 v 355 h 80 c 44.2,0 80,-35.8 80,-88 0,-53.1 -31.4,-86.4 -77.1,-86.4 21.9,-24.3 16.4,-55.8 -8,-80.7 C 224,101.5 211.5,82.9 200.1,61.7 188.6,40.5 176,29 176,29 Z m 48,107 c 15.5,12.9 32,26.6 32,46 0,15.7 -4.5,26.6 -20,32.4 l -12,4.5 z m 34.2,89.1 c 15.5,0 29.8,8.7 29.8,47 0,79.9 -48,95.9 -64,95.9 V 234.9 c 12,-4.5 24.8,-9.8 34.2,-9.8 z"
    fill="#ffffff" stroke="none" />
</svg>