<svg id="jotabe-logo" viewBox="0 0 1200 480" xmlns="http://www.w3.org/2000/svg" xmlns:svg="http://www.w3.org/2000/svg">
  <path transform="translate(128,48)"
    d="M 104,0 C 46.6,0 0,45.4 0,105.4 0.1,153 27.4,168 48,168 70.1,168 88,150.1 88,128 88,105.9 70.1,88 48,88 34.9,88 23.3,94.3 16,104 16,45.4 68,22.4 112,26.4 V 368 C 96,368 48,352 48,272 V 239 L 0,257 v 39 c 0,52.2 35.8,88 80,88 h 80 V 16 C 143.9,5.8 124.4,0 104,0 Z m 504,29 v 339 c -16,0 -21.6,-10.1 -24.9,-28.6 -3,-17.1 -6.8,-38.7 -16.3,-92.6 -5.6,-31.7 -31.6,-43.1 -62.8,-43.1 -16.5,0 -29.2,4.5 -41.6,9.1 L 408,233.2 V 104 l -72,27 v 16 c 12.7,-4.7 24,5.4 24,21 v 83.2 l -28.2,10.6 c -8.6,-31.2 -31.3,-53.1 -75.8,-53.1 -60.5,0 -80,47.3 -80,88 0,47.3 18.4,87.3 80,87.3 63.9,0 80,-40 80,-88 0,-6.7 -0.4,-13.2 -1.2,-19.5 L 360,267 v 68.8 c 0,27.9 8,48.2 40,48.2 18.9,0.4 36.3,-6.8 53.6,-13.4 7.7,8.3 19,13.4 34.4,13.4 15.4,0 40.3,-8.3 54.2,-13.5 5.6,9.5 15.2,13.5 28.4,13.5 H 688 c 44.2,0 80,-35.8 80,-88 0,-53.1 -31.4,-86.4 -77.1,-86.4 21.9,-24.3 16.4,-55.8 -8,-80.7 C 656,101.5 643.5,82.9 632.1,61.7 620.6,40.5 608,29 608,29 Z m 48,107 c 15.5,12.9 32,26.6 32,46 0,15.7 -4.5,26.6 -20,32.4 l -12,4.5 z m 220,10.6 c -26.7,10 -53.3,20 -80,30 v 16 l 48,-18 c 2.6,15 16,26 32,20 l 48,-18 v -16 c 0,0 -8.6,3.2 -16,6 -16,6 -29.4,-5 -32,-20 z M 860,208 c -63,0 -80,48.9 -80,88 0,52.2 35.8,88 80,88 28,0 51.3,-5.6 80,-24 v -16 c -73.3,43.4 -99.3,1.8 -107.7,-33.6 L 933.9,272.2 C 925.5,224.8 896.2,208.2 860,208 Z m -373,14.3 c 16.8,-0.4 27.6,10.2 32.3,31.9 -48.1,18.6 -79.1,36.5 -79.3,76.5 0,9.7 1.6,19 5.2,27.1 -26.1,9.7 -37.1,-0.7 -37.2,-29.9 0,-12.1 -0.1,-41.7 0,-78.9 l 60.1,-22.5 c 7,-2.6 13.3,-4 18.9,-4.2 z m 368.3,1.7 c 20.8,0.3 27,34 29.9,50.5 l -55.6,20.8 c -5.4,-38.5 0.5,-71.7 25.7,-71.3 z m -600.4,0 c -11.7,10.7 -16.4,27.8 -10.4,43.6 6.8,18.1 25.2,28.3 43.5,25.5 v 2.9 c 0,40 -9.8,72 -31.8,72 -22.4,0 -32.2,-32 -32.4,-72 -0.3,-46.9 12.6,-70.9 31.1,-72 z m 435.3,1.1 c 15.5,0 29.8,8.7 29.8,47 0,79.9 -48,95.9 -64,95.9 V 234.9 c 12,-4.5 24.8,-9.8 34.2,-9.8 z m -402.8,52.4 c -10.9,0.8 -21.7,-7.4 -21.7,-20 0,-8.3 5.4,-15.41 12.6,-18.46 4.7,8.95 7.8,21.66 9.1,38.46 z m 234.5,-8.1 c 5.1,28.8 11.9,67.3 15.4,86.9 -29.9,10.9 -49.3,4.8 -49.3,-31.6 0.3,-26 11.5,-45.3 33.9,-55.3 z"
    fill="#ffffff" stroke="none" />
</svg>